<?xml version="1.0" encoding="UTF-8"?>
<svg
	id="Layer_1"
	data-name="Layer 1"
	xmlns="http://www.w3.org/2000/svg"
	xmlns:xlink="http://www.w3.org/1999/xlink"
	version="1.1"
  width="100%"
  height="100%"
	viewBox="0 0 2834.65 2834.65"
>
	<defs>
		<style>
			.cls-1 {
				fill: #f78f2f;
			}

			.cls-1,
			.cls-2,
			.cls-3,
			.cls-4,
			.cls-5,
			.cls-6,
			.cls-7,
			.cls-8,
			.cls-9 {
				stroke-width: 0px;
			}

			.cls-2 {
				fill: none;
			}

			.cls-3 {
				fill: url(#linear-gradient);
			}

			.cls-4 {
				fill: #ffefd9;
			}

			.cls-5 {
				fill: #77ac42;
			}

			.cls-6 {
				fill: url(#linear-gradient-4);
			}

			.cls-7 {
				fill: url(#linear-gradient-2);
			}

			.cls-8 {
				fill: url(#linear-gradient-3);
			}

			.cls-9 {
				fill: url(#linear-gradient-5);
			}
		</style>
		<linearGradient
			id="linear-gradient"
			x1="1409.7"
			y1="2259.25"
			x2="1409.7"
			y2="616.07"
			gradientUnits="userSpaceOnUse"
		>
			<stop offset="0" stop-color="#fff1d2" />
			<stop offset=".04" stop-color="#feeec5" />
			<stop offset=".09" stop-color="#fee7a4" />
			<stop offset=".17" stop-color="#fddb6f" />
			<stop offset=".26" stop-color="#fccb26" />
			<stop offset=".26" stop-color="#fccb23" />
			<stop offset=".31" stop-color="#eeb825" />
			<stop offset=".38" stop-color="#dda127" />
			<stop offset=".44" stop-color="#d39329" />
			<stop offset=".5" stop-color="#d08f2a" />
			<stop offset=".53" stop-color="#d79e43" />
			<stop offset=".6" stop-color="#e5ba71" />
			<stop offset=".66" stop-color="#f0d095" />
			<stop offset=".71" stop-color="#f8e0af" />
			<stop offset=".76" stop-color="#fde9bf" />
			<stop offset=".8" stop-color="#ffedc5" />
			<stop offset=".81" stop-color="#feebbe" />
			<stop offset=".82" stop-color="#fee295" />
			<stop offset=".84" stop-color="#fddb71" />
			<stop offset=".86" stop-color="#fcd555" />
			<stop offset=".88" stop-color="#fcd03e" />
			<stop offset=".91" stop-color="#fccd2f" />
			<stop offset=".93" stop-color="#fccb25" />
			<stop offset=".97" stop-color="#fccb23" />
		</linearGradient>
		<linearGradient
			id="linear-gradient-2"
			x1="1376.25"
			y1="1062.1"
			x2="1376.25"
			y2="1898.57"
			gradientUnits="userSpaceOnUse"
		>
			<stop offset=".09" stop-color="#f99f32" />
			<stop offset=".1" stop-color="#f89d31" />
			<stop offset=".23" stop-color="#f7922f" />
			<stop offset=".37" stop-color="#f78f2f" />
			<stop offset=".52" stop-color="#f7922e" />
			<stop offset=".66" stop-color="#f89d2c" />
			<stop offset=".79" stop-color="#f9af28" />
			<stop offset=".91" stop-color="#fbc823" />
			<stop offset=".92" stop-color="#fccb23" />
		</linearGradient>
		<linearGradient
			id="linear-gradient-3"
			x1="1311.65"
			y1="1026.9"
			x2="1311.65"
			y2="1888.46"
			gradientUnits="userSpaceOnUse"
		>
			<stop offset=".05" stop-color="#f99f32" />
			<stop offset=".06" stop-color="#f89a31" />
			<stop offset=".11" stop-color="#f7912f" />
			<stop offset=".17" stop-color="#f78f2f" />
			<stop offset=".38" stop-color="#f7922e" />
			<stop offset=".57" stop-color="#f89d2c" />
			<stop offset=".74" stop-color="#f9af28" />
			<stop offset=".91" stop-color="#fbc823" />
			<stop offset=".92" stop-color="#fccb23" />
		</linearGradient>
		<linearGradient
			id="linear-gradient-4"
			x1="1690.94"
			y1="1617.24"
			x2="1690.94"
			y2="2067.19"
			gradientUnits="userSpaceOnUse"
		>
			<stop offset=".2" stop-color="#f78f2f" />
			<stop offset=".39" stop-color="#f89d2c" />
			<stop offset=".74" stop-color="#fbc224" />
			<stop offset=".81" stop-color="#fccb23" />
		</linearGradient>
		<linearGradient
			id="linear-gradient-5"
			x1="592.41"
			y1="1433.1"
			x2="2728.41"
			y2="1433.1"
			gradientTransform="translate(-21.58 3077.41) rotate(-90)"
			gradientUnits="userSpaceOnUse"
		>
			<stop offset=".05" stop-color="#c9d37c" />
			<stop offset=".07" stop-color="#bfce75" />
			<stop offset=".13" stop-color="#a4c162" />
			<stop offset=".2" stop-color="#90b854" />
			<stop offset=".28" stop-color="#82b149" />
			<stop offset=".38" stop-color="#79ad43" />
			<stop offset=".54" stop-color="#77ac42" />
			<stop offset=".67" stop-color="#79ad43" />
			<stop offset=".76" stop-color="#82b14a" />
			<stop offset=".84" stop-color="#91b855" />
			<stop offset=".91" stop-color="#a7c364" />
			<stop offset=".98" stop-color="#c3d077" />
			<stop offset=".99" stop-color="#c9d37c" />
		</linearGradient>
	</defs>
	<circle class="cls-5" cx="1411.52" cy="2348.07" r="64.16" />
	<g>
		<circle class="cls-5" cx="1411.52" cy="2348.07" r="48.9" />
		<path
			class="cls-4"
			d="M1411.52,2399.46c-28.34,0-51.4-23.06-51.4-51.4s23.06-51.4,51.4-51.4,51.4,23.06,51.4,51.4-23.06,51.4-51.4,51.4ZM1411.52,2301.67c-25.58,0-46.4,20.81-46.4,46.4s20.81,46.4,46.4,46.4,46.4-20.81,46.4-46.4-20.81-46.4-46.4-46.4Z"
		/>
	</g>
	<path
		class="cls-3"
		d="M2151.63,1769.69c51.04-106.93,79.65-226.53,79.65-352.69,0-453.02-368.56-821.59-821.59-821.59s-821.59,368.56-821.59,821.59,368.56,821.59,821.59,821.59c325.42,0,607.25-190.18,740.21-465.23,1.43-.54,2.37-.91,2.75-1.06l-1.03-2.6ZM1345.94,634.11c-38.14,23.73-115.21,85.36-185.29,168.96-1.13,1.35-2.32,2.8-3.49,4.21-21.21-3.46-48.3-10.15-76.08-18.64,101.26-87.68,199.8-132.16,239.73-150.17,2.06-.93,3.94-1.78,5.64-2.55,6.47-.68,12.97-1.29,19.49-1.81ZM1923.44,1012.99c19.28,35.2,54.1,106.93,77.93,203.07-37.82,9.96-82.26,19.61-133.3,27.58-16.88-88.2-42.04-159.71-61.03-205.82,44.99-6.44,83.79-15.31,116.41-24.83ZM2010.53,1257.31c.41,2.1.84,4.17,1.24,6.29,14.89,78.45,19.09,159.69,12.51,237.64-46.08,8.91-94.67,15.66-139.89,20.75,9.61-100.28.4-181.38-8.82-236.89,51.53-8.07,96.48-17.76,134.96-27.79ZM1779.93,826.27c46.45,45.53,87.84,96.63,121.17,149.18-30.06,8.32-71.22,16.55-111.69,22.08l-1.55-2.84c-25.57-52.88-56.38-103.87-90.32-149.87,23.9-5.13,51.56-12.73,79.01-21.79,1.12,1.09,2.25,2.15,3.38,3.25ZM1819.36,1782.27c27.7-64.73,48.25-139.64,59.37-214.74,54.86-6.05,101.73-13.58,140.5-21.24-.1.74-.19,1.48-.29,2.21-11.45,79.49-34.51,158.18-67.21,230.23-40.71,6.26-86.68,11.09-136.45,12.7,1.36-3.06,2.74-6.04,4.07-9.16ZM946.14,1563.86l.14-3.09c14.39,102.28,43.24,180.91,60.34,220.83,1.43,3.34,2.91,6.53,4.36,9.81-51.31-1.7-98.6-6.8-140.21-13.36-32.85-72.11-56.03-150.92-67.58-230.54,42.65,7.84,90.72,14.01,142.95,16.35ZM1031.34,1834.01c42.81,83.3,90.25,141.13,119.27,175.78-50.85-4.8-96.57-10.57-136.18-16.44-61.88-68.26-100.64-131.64-120.91-169.32,41.65,5.47,87.97,9.29,137.83,9.97ZM941.6,1521.44c-52.66-2.71-101.09-9.52-143.51-17.94-7.07-79.17-2.99-161.85,12.16-241.64.37-1.97.77-3.91,1.16-5.86,39.3,10.43,85.59,20.54,138.91,28.93-9.18,55.53-18.31,136.5-8.72,236.51ZM957.8,1243.47c-52.85-8.29-98.63-18.38-137.25-28.74,23.77-96.14,58.56-167.92,77.9-203.25,33.36,10.01,73.45,19.4,120.29,26.17-19.01,46.21-44.11,117.71-60.94,205.82ZM1038.11,994.01l-1.68,3.67s-84.56-14.8-115.71-23.67c33.36-52.65,74.83-103.86,121.38-149.48,1.11-1.08,2.22-2.13,3.32-3.2,28.56,9.61,57.64,17.76,82.7,23.21-27.93,37.89-60.3,88.03-90,149.48ZM2023.75,1765.32c32.85-73.16,55.17-153.57,65.23-234.84,54.67-14.13,88.06-27.19,102.15-33.25-8.61,84.51-30.71,165.08-64.04,239.56-16.54,5.75-52.68,17.39-103.33,28.53ZM2062.09,1198.21c-20.43-71.07-50.44-140.01-87.85-202.17,40-15.18,64.8-29.28,74.51-35.26,43.85,61.25,79.12,129.04,104.05,201.59-14.89,7.31-45.15,20.92-90.71,35.84ZM1781.29,776.93c-89.23-71.07-178-112.65-235.7-133.62,104.41,18.29,201.81,57.24,287.77,112.51-15.56,7.29-33.42,14.46-52.07,21.11ZM1491.38,635.74c2.68,1.24,5.89,2.69,9.81,4.46,39.9,17.99,138.33,62.41,239.53,149.98-26.58,7.93-52.22,14.14-72.33,17.32-1.03-1.24-2.02-2.54-3.06-3.77-70.17-83.71-147.35-145.39-185.44-169.05,3.83.34,7.67.67,11.49,1.06ZM1040.76,775.17c-18.62-6.77-36.29-14.05-51.47-21.39,84.15-53.53,179.11-91.52,280.83-109.83-57.73,21.64-143.32,62.71-229.36,131.23ZM759.9,1196.58c-50.67-16.89-81.36-31.83-92.16-37.45,27.14-77.86,66.19-150.18,114.98-214.75l-9.14,13.44c1.86,1.26,26.54,17.79,74.27,36.36-37.47,62.24-67.51,131.26-87.96,202.4ZM733.47,1532.26c10.29,80.32,32.56,159.72,65.11,232.02-61.64-13.84-100.84-28.14-107.68-30.72-32.29-73.04-53.8-151.87-62.42-234.49,22.19,8.63,58.19,21.26,104.98,33.19ZM822.41,1812.52c32.59,61.14,72.85,117.78,120.17,169.05-61.05-11.04-95.84-20.1-96.96-20.4l-2.45-.65c-49.64-51.72-92.26-110.2-126.38-173.9,25.4,7.7,61.31,17.32,105.62,25.9ZM990.12,2029.23c77.59,71.48,158.12,118.87,216.88,146.68-114.39-30.58-218.57-86.39-306.19-161.09,30.33,5.33,60.14,10.14,89.31,14.4ZM1268.82,2189.81c-38.88-20.45-119.43-65.42-203.92-144.97-2.27-2.14-4.41-4.28-6.64-6.42,44.69,5.54,87.81,9.96,128.98,13.35,69.41,75.95,135.94,129.45,165.25,148.62-28.33-2.05-56.25-5.6-83.67-10.58ZM1348.96,2182.45c-23.04-23.34-65.28-66.17-112.84-127.07,22.81,1.52,44.96,2.74,66.42,3.7,19.6,42.07,46.93,95.16,79.16,142.85-4.92-.17-9.83-.36-14.73-.62-2.95-3.56-8.51-9.24-18.01-18.86ZM1514.13,2060.98c27.61-.8,52.51-1.95,74.41-3.26-47.03,60.02-88.7,102.27-111.53,125.4-8.53,8.64-13.89,14.1-17.03,17.7-7.73.49-15.49.88-23.27,1.14,34.21-57.25,59.8-105.54,77.42-140.99ZM1637.06,2054.28c39.27-3.28,60.97-6.37,61.82-6.49l5.14-.76v-42.08l-6.69.75c-6.61.75-13.19,1.45-19.76,2.14,29.26-35.02,75.59-92.27,117.42-173.83,48.38-.64,93.46-4.22,134.16-9.41-25.03,46.76-79.3,134.67-172.02,221.97-79.92,75.24-156.34,119.56-197.3,141.45-27.62,5.37-55.75,9.29-84.31,11.67,30.01-20.06,94.27-72.12,161.55-145.43ZM1837.67,2025.65c2.57.2,12.48.89,26.38.89,12.22,0,27.51-.55,43.5-2.43-81.52,66.97-176.72,117.87-280.7,147.82,59-29.15,136.53-76.54,210.82-146.28ZM2194.63,1445.08l-1.57,1c-24.66,15.64-59.67,28.65-99.8,39.46,5.43-81-1.63-165.37-20.53-246.33,43.93-14.23,74.77-27.54,92.84-36.16,19.29,68.04,29.62,139.81,29.62,213.95,0,9.41-.23,18.76-.56,28.09ZM2023.12,926.98c-10.78,6.27-34.92,19.09-72.18,32.62-37.81-55.62-82.45-106.39-132.91-151.52,20.4-8,39.36-16.52,54.83-25.06,56.21,41.18,106.76,89.62,150.25,143.96ZM1458.19,633.05c3.96,4.4,11.33,11.08,23.64,22.11,55.38,49.6,185.07,165.75,259.6,349.24,38.88,95.75,54.36,189.83,62.57,252.33-24.28,2.95-71.43,7.55-121.39,6.34l-7.05-.17,31.38,34.42h1.33c.58,0,52.25-.06,100.19-4.86,6.77,55.98,15.65,135.9,5.42,236.49-66.72,5.71-114.76,7.45-116.09,7.5l-9.11.31,19.95,42.56,3.96-.13c33.78-1.1,65.58-2.87,95.53-5.12-10.23,66.97-27.89,133.73-52.72,198.56-41.3,107.88-93.88,187.45-132.83,240.37-29.93,2.47-59.36,4.38-88.25,5.77,6.79-14.86,10.15-23.04,10.25-23.3l.7-1.72-38.86-7.05-.36,1.34c-2.8,10.5-5.91,21.32-9.21,32.27-61.63,2.09-120.47,1.93-175.81.19-4.31-14.28-8.67-29.23-13.04-44.89l-.36-1.29-38.65,6.16.64,1.73c.16.41,5.51,14.6,15.05,36.91-27.59-1.24-54.22-2.84-79.78-4.73-39.09-52.91-92.5-133.17-134.33-242.42-25.92-67.7-44.12-137.45-54.09-207.32-17.35-121.52-5.86-216.13,1.75-278.74,7.2-59.28,20.61-169.62,66.32-282.16,74.52-183.49,204.22-299.64,259.6-349.24,12.09-10.83,19.38-17.44,23.4-21.84,13.96-.74,28.02-1.14,42.16-1.14,16.29,0,32.45.56,48.49,1.54ZM949.89,780.57c15.05,8.69,33.76,17.4,54.26,25.62-50.52,45.16-95.2,95.96-133.04,151.61-42.26-15.75-66.48-30.18-72.37-33.88,43.81-54.18,94.65-102.43,151.14-143.35ZM654.77,1199.83c16.05,8,47.43,22.24,94.49,37.76-19.16,82.11-26.12,167.71-20.24,249.72-55.13-14.98-92.25-30.13-103.98-35.18-.52-11.65-.82-23.36-.82-35.13,0-75.31,10.68-148.17,30.56-217.17ZM1386.17,2202.1c-5.67-12.83-27.22-63.12-52.7-141.79,36.05,1.25,70.08,1.81,101.56,1.81,16.95,0,33.16-.16,48.69-.43-21.1,63.61-44.65,123.18-51.59,140.46-7.45.21-14.93.34-22.43.34-7.87,0-15.71-.15-23.53-.38ZM1971.21,1965.66c-15.36,6.68-48.87,18.12-85.67,11.09,44.94-49.77,83.26-104.53,114.55-163.39,41.3-7.83,75.57-16.62,101.11-24.07-35.02,64.8-78.91,124.11-129.99,176.38ZM1682.71,1514.53c.22,0,.41-.09.59-.18.4-.19,1.23-.81.75-2.39l9.34-149.61.04-.62-46.02-52.82.45,4.67c5.15,53.56-5.03,136.56-5.14,137.39l-.06.51.26.44c33.35,56.84,37.98,62.6,39.79,62.6Z"
	/>
	<g>
		<path
			class="cls-2"
			d="M1100.45,1193.39c1.88,3.82,1.32,9.51,8.89,8.2,10.78-1.87,16.86,2.37,20.41,12.58,2.35,6.76,2.75,13.8,2.78,20.9.04,10.97,1.11,21.73,3.22,32.63,2.05,10.6,4.97,21.54,3.24,32.58-1.52,9.75-1.2,19.55-1.82,29.32-1.2,18.91-3.88,37.43-15.78,53.26-2.81,3.74-4.71,8.15-7.22,12.12-5.7,9-7.79,18.7-5.95,30.64-1.26,11.45,3.78,23.28,6.36,35.49,6.49,30.74,15.94,60.52,30.98,88.3,1.95,3.6,3.98,6.96,8.68,6.7,4.05-.22,6.07-3.17,7.66-6.46.51-1.06,1.02-2.13,1.4-3.23,4-11.47,8.55-22.79,11.84-34.46,10.51-37.28,26.66-72.08,47.33-104.57,23.56-37.03,48.65-73.07,78.6-105.4,3.16-3.41,3.17-6.08-1.24-8.22-6.35-3.08-12.62-6.28-18.44-10.35-7.56-5.29-8.24-5.21-14.2,2.16-6.4,7.93-12.67,15.98-18.76,24.15-3.1,4.15-6.08,4.22-9.8,1.01-4.78-4.13-5.27-6.41-1.23-11.94,6.01-8.23,12.22-16.32,18.6-24.27,3.14-3.91,2.87-6.79-1.03-9.89-4.29-3.41-8.31-7.17-12.42-10.81q-7.16-6.34-13.59.99c-21.39,24.54-43.41,48.51-66.27,71.69-5.7,5.78-6.6,5.4-12.11-.11-4.53-4.54-3.22-7.72.62-11.85,22.17-23.82,44.11-47.86,66.18-71.76,7.17-7.76,7.22-7.65.06-15.96-4.61-5.34-9.16-10.73-13.62-16.19-6.15-7.53-6.21-7.43-13.7-1.53-10.78,8.48-21.79,16.68-32.68,25.02-3.58,2.74-6.66,3.26-10.23-.47-6.54-6.82-6.6-10.81,1.59-15.74,12.14-7.31,22.21-17.44,34.38-24.65,4.29-2.54,4.71-5.59,2.19-9.78-3.84-6.37-7.51-12.87-10.86-19.5-2.34-4.61-5.21-4.73-9.59-2.99-20.03,7.98-40.15,15.73-60.27,23.46-4.45,1.71-6.5,4.27-4.2,8.95Z"
		/>
		<path
			class="cls-2"
			d="M1039.04,1070.63c13.94,13.35,27.01,27.54,35.38,45.08,6.74,14.12,12.96,28.55,17.77,43.5,2.88,8.96,2.83,8.86,11.14,5.33,12.63-5.35,25.31-10.58,38-15.77,5.44-2.23,10.96-4.26,16.44-6.37,4.87-1.88,6.48-4.79,4.45-10.09-2.37-6.19-3.93-12.71-5.72-19.11-2.33-8.31-2.34-8.56-11.27-7.78-14.82,1.31-29.62,2.93-44.43,4.4-4.05.4-8.14.5-9.77-4.27-1.45-4.28.77-7.62,3.71-10.44,2.35-2.26,5.31-3.43,8.58-3.22,11.04.69,21.84-1.8,32.79-2.33,15.43-.76,15.43-.84,14.27-16.31-.76-10.1-.98-10.41-11.06-10.73-32.5-1.04-65-2.01-97.5-3.01,0-.24.01-.49.02-.73-1.57,0-3.14,0-4.7,0-2.25-.02-5.05-.9-5.87,2.16-.54,2.02,1.11,3.63,2.52,4.99,1.69,1.63,3.55,3.09,5.24,4.72Z"
		/>
		<path
			class="cls-2"
			d="M1565.8,1559.65c-.11-.5-.43-.96-.66-1.44-.22.24-.45.48-.72.77.24.45.5.92.75,1.39.22-.24.67-.54.63-.72Z"
		/>
		<path
			class="cls-2"
			d="M1579.52,1685.45c26.75,17.16,51.59,36.99,76.96,56.06,8.77,6.59,17.53,13.2,26.34,19.74,1.23.91,2.82,1.71,4.25.51,1.57-1.32.62-2.94-.18-4.19-5.48-8.58-9.96-17.77-16.36-25.8-11.73-14.72-22.68-30.01-32.76-45.94-8.81-13.91-18.14-27.49-27.27-41.2-1.93-2.89-3.49-6.28-7.9-6.61-.89.38-2.13.62-2.99,1.33-13.9,11.43-30.12,18.12-47.09,23.35-1.81.56-3.98,1.06-4.33,3.36-.39,2.57,1.97,3.07,3.59,3.97,9.25,5.14,18.85,9.72,27.74,15.42Z"
		/>
		<path
			class="cls-2"
			d="M1318.34,1268.62c3.29,1.66,6.66,3.23,9.42-.56,2.74-3.77.3-6.47-2.31-9.14-5.2-5.33-10.69-10.45-15.32-16.24-21.06-26.31-35.64-56.17-46.92-87.71-7.02-19.64-11.39-39.93-12.64-60.8-.3-4.99-6.18-12.14.49-14.41,5.24-1.78,7.59,6.6,10.37,11.1,19.93,32.25,42.76,61.63,74.51,83.6,24.76,17.13,50.71,27.9,81.34,23.91,6.22-.81,12.49-1.3,18.64-2.49,28.44-5.47,54.01-16.67,73.29-39.1,13.32-15.5,24.59-32.5,33.76-50.82,4.04-8.07,8.03-16.16,12.21-24.15,1.45-2.77,3.36-5.96,7.12-4.79,3.58,1.11,3.81,4.66,3.6,7.87-.71,10.56-1.29,21.13-2.35,31.65-2.44,24.19-6.39,48.11-14.63,71.1-12.24,34.14-31.89,62.76-62.58,83.03-1.3.86-2.68,1.7-3.72,2.84-1.41,1.54-1.79,3.44-.68,5.4,1.06,1.87,2.76,3.06,4.81,2.61,2.26-.5,4.39-1.6,6.53-2.57,27.83-12.54,53.03-29.12,73.74-51.58,41.88-45.42,63.66-99.07,63.77-161.14.28-20.96-2.17-41.56-7.89-61.68-10.23-36.02-26.15-69.22-53.65-95.2-53.14-50.21-117.37-67.24-188.81-59.13-43.75,4.97-83.28,21.45-118.46,48.11-30.7,23.27-54.34,51.69-66.89,88.79-12.89,38.1-15.59,77.05-7.56,116.03,15.81,76.69,61.58,130.56,130.82,165.44ZM1315.65,981.99c19.63-34.08,49.82-54.54,89.67-56.35,40.34-1.84,71.94,16.1,94.89,49,15.04,21.56,21.42,45.95,21.46,72.09-.11,48.74-28.09,93.24-70.13,110.83-57.85,24.21-115.39-5.75-139.15-53.92-20.18-40.91-19.48-82.18,3.27-121.66Z"
		/>
		<path
			class="cls-4"
			d="M1713.71,1803.68c-1.28-.9-2.52-1.87-3.76-2.83-15.27-11.67-31.17-22.48-46.62-33.88-33.79-24.94-68.91-47.89-104.08-70.78-20.37-13.26-41.13-25.92-61.38-39.35-13.75-9.12-13.99-13.41-3.59-25.98,32.61-39.43,50.92-84.09,50.38-135.9-.29-28.09-5.38-55.3-13.31-82.08-13.07-44.17-40.84-77.84-75.36-107.12-25.17-21.35-53.36-25.14-83.78-16.7-37.14,10.31-67.05,31.59-89.64,62.91-5.51,7.63-10.36,15.74-15.87,23.36-35.92,49.6-62.49,104.1-84.76,160.89-5.15,13.12-8.86,26.92-16.8,38.79-7.33,10.96-17.12,11.09-24.51.24-3.73-5.48-6.98-11.4-9.66-17.47-10.47-23.7-19.41-48.01-26.5-72.92-4.28-15.04-6.8-30.57-10.86-45.68-8.51-31.58-8.55-31.41,10.51-58.3,13.96-19.7,21.29-41.63,21.5-66.02.23-27.88-4.26-55.5-4.19-83.35,0-1.93-.41-3.92-.97-5.78-3.88-12.82-13.26-15.32-22.84-5.98-9.48,9.24-16.03,20.45-19.33,33.15-1.89,7.27-5.15,12.57-11.23,17.08-14.86,11-22.43,25.87-21.36,44.69.16,2.74.08,5.49-.01,8.24-.1,2.98-1.19,5.5-4.39,6.13-4.18.82-5.35-2.43-6.41-5.41-1.49-4.2-1.11-8.51-.27-12.79,3.38-17.23,8.83-33.42,22.94-45.2,5.57-4.65,7.92-10.33,6.96-17.67-.95-7.22,1.32-13.98,4.33-20.45,1.51-3.25,2.82-6.43,2.02-10.15-1.59-7.36-.48-14.88-1.12-22.3-1.39-16.03-4.15-31.84-10.11-46.85-7.3-18.4-18.44-34.64-30.64-49.99-8.01-10.07-16.17-20.25-26.88-27.88-7.29-5.19-9.5-5.42-16.15.86-6,5.66-11.21,12.11-15.71,19.01-24.04,36.88-38.32,76.98-39.49,121.33-.78,29.87,2.44,59.42,6.56,88.94,3.59,25.7,13.94,48,31.54,66.93,7.21,7.76,15.5,14.59,22.16,22.77,14.42,17.71,35.68,31.86,32.76,59.22,5.95,25.9,9.36,52.23,18.36,77.63,9.86,27.82,19.24,55.61,36.31,79.94,17.77,25.31,40.89,44.31,70.22,54.75,17.67,6.29,25.97,1.86,32.77-15.89,5.9-15.38,11.21-30.99,17.39-46.25,9.98-24.68,18.71-50.04,36.13-70.98,8.03-9.64,15.51-19.77,23.91-29.06,9.46-10.46,18.58-21.68,30.2-29.61,26.14-17.86,54.98-28.02,87.24-27.26,47.96,1.13,83.53,38.55,84.25,83.83.21,13.06-1.66,25.83-3.48,38.57-2.44,17.15-7.13,33.83-17.49,48.2-12.44,17.25-28.68,29.48-50.11,31.9-15.1,1.71-30.71,2.07-45.45-3.17-8.7-3.09-14.18-.08-19.01,6.8-15.1,21.51-30.79,42.61-44.64,64.97-5.5,8.87-3.97,11.73,6.55,11.89,13.34.19,26.69.05,34.54.05,49.46-.62,93.19,3.4,136.94,6.95,14.04,1.14,28.18,2.43,41.94,5.24,35.91,7.35,70.16,19.85,102.67,36.72,21.9,11.37,40.71,26.94,53.78,48.08,15.83,25.62-.61,60.33-30.29,65.39-17.54,2.99-35.2,2.57-52.78.79-38.98-3.93-77.27-12.42-115.88-18.73-29.53-4.82-59.17-7.25-88.91-7.7-42.4-.64-84.46,4.13-126.3,11.04-31.67,5.23-63.73,8.16-94.81,16.74-4.51,1.25-9.2,2.25-13.85,2.5-25.84,1.38-51.65,1.44-77.33-2.63-21.43-3.39-37.79-14.43-49.74-32.31-6.96-10.41-7.53-21.09-1.36-32.14,5.22-9.35,11.63-17.74,19.72-24.72,20.03-17.28,41.8-31.79,66.73-41.16,2.53-.95,5.83-1.74,5.36-5.21-.39-2.88-3.29-3.01-5.68-2.75-20.22,2.16-40.57,3.08-60.42,8.39-17.12,4.57-33.34,11.51-49.91,17.5-25.11,9.08-46.83,23.04-64.5,43.63-22.6,26.33-27.17,76.25,4,100.8,3.07,2.42,5.78,5.32,8.85,7.74,27.32,21.55,58.8,34.17,92.12,42.8,12.15,3.15,24.59,4.7,37,6.39,24.12,3.28,48.48,5.97,72.66,4.55,28.88-1.7,57.7-5.9,86.05-12,31.86-6.85,63.81-12.3,96.48-13.15,11.73-.31,23.52-1.15,35.14-2.81,20.36-2.92,40.73-2.2,61.07-.9,32.9,2.11,64.89,10.48,97.48,14.81,17.46,2.32,34.79,5.99,52.31,7.54,36.37,3.21,72.01-2.57,106.92-12.17,17.9-4.92,34.4-13.19,45.92-29,3.21-4.4,4.86-8.73,4.52-14.1-1.86-29.59,2.03-58.76,7.71-87.62,2.63-13.34-.6-22.95-11.38-30.54ZM1715.59,1829.86c-5,30.53-9.57,61.17-7.67,92.3.29,4.72-1.56,8.25-4.6,11.6-7.52,8.28-16.3,14.51-26.89,18.38-23.36,8.54-47.64,12.36-72.18,15.54-27.64,3.58-54.53.79-81.51-5.57-14.04-3.31-28.8-3.37-43.06-5.92-30.09-5.38-60.29-10.04-90.8-11.43-14.8-.67-29.75,1.06-44.57,2.4-6.23.56-12.45,1.59-18.72,1.66-40.56.46-80.12,8.07-119.79,15.58-26.5,5.01-53.2,10.18-80.31,10.3-22.66.1-45.17-2.12-67.73-5.38-18.31-2.65-36.38-5.78-53.92-11.26-26.38-8.23-50.92-20.2-72.65-37.72-35.29-28.45-26.83-72.87-4.48-96.92,13.63-14.66,29.64-25.98,48.04-33.17,25.5-9.97,50.69-21.14,77.87-26.22,1.91-.36,3.81-.83,5.74-1.06.69-.08,1.8.22,2.11.72.65,1.06.21,2.34-.77,2.97-1.97,1.28-4.09,2.32-6.14,3.46-15.17,8.4-29.28,18.21-41.55,30.58-5.59,5.63-10.21,11.97-13.91,18.88-7.63,14.26-7.49,28.48,1.14,42.42,11.56,18.68,28.22,30.52,49.46,35.14,30.53,6.64,61.55,6.77,92.49,3.86,10.42-.98,20.57-4.77,30.85-7.24,12.97-3.11,26.13-4.91,39.36-6.53,16.31-2,32.47-5.19,48.76-7.38,39.25-5.28,78.61-9.63,118.29-8.22,43.93,1.57,87.38,7.31,130.32,16.74,11.87,2.61,24.01,3.07,35.96,5.37,21.95,4.22,44.22,6.39,66.65,4.92,8.18-.54,16.6-.19,24.41-2.95,28.53-10.1,50.05-49.75,26.08-82.37-14.63-19.91-33.23-35.69-55.17-46.76-33.32-16.8-67.75-31.13-104.8-37.55-18.89-3.27-37.97-6.16-57.08-7.32-18.76-1.14-37.52-2.71-56.32-3.55-18.4-.82-36.79-1.73-55.21-1.83-12.16,0-24.33.13-36.49-.05-6.26-.09-7.09-1.6-3.46-6.9,12.19-17.79,24.65-35.4,36.92-53.14,3.9-5.64,8.27-6.41,15.11-4.7,21.99,5.51,44.17,6.92,65.5-3.12,26.92-12.68,43.32-34.41,51.28-62.48,5.69-20.05,8.33-40.7,7.63-61.63-1.16-34.75-17.8-60.36-47.32-77.59-29.86-17.43-61.39-16.04-93.3-6.36-14.77,4.48-28.09,12-41.31,19.69-5.09,2.96-9.59,6.71-13.84,10.86-20.56,20.07-39.04,41.91-55.47,65.42-14.75,21.11-22.44,45.6-31.63,69.34-5.24,13.53-10.36,27.1-15.8,40.55-3.27,8.08-7.05,9.99-15.7,7.99-4.94-1.14-10.07-2.44-14.47-4.86-20.43-11.23-38.93-24.82-52.71-44.14-16.86-23.64-26.33-50.44-35.9-77.56-8.69-24.62-12.61-50.07-18.19-75.26-1.09-4.9-.88-10.13-.98-15.21-.21-9.87-4.26-17.62-10.57-25.32-15.94-19.45-35.02-35.91-51.09-55.2-14.51-17.41-21.89-37.55-25.23-59.83-3.6-24.1-4.3-48.4-5.9-72.59-1.56-23.48,1.44-46.89,9.53-69.44,7.3-20.35,14.69-40.59,27.25-58.43,3.6-5.12,7.35-10.2,11.58-14.79,5.34-5.79,6.63-5.7,12.58-.43,12.72,11.27,22.96,24.64,32.55,38.57,17.14,24.91,26,52.4,26.7,82.69.25,10.96,1.26,21.78-4,32.01-1.63,3.16-2.06,6.92-1.47,10.38,1.51,8.85-2.78,14.66-8.79,20.4-15.04,14.38-20.68,33.04-21.61,53.09-.79,16.92,8.37,23.93,24.68,20.25,4.88-1.1,7.69-3.75,6.5-9.19-.25-1.15-.51-2.3-.68-3.46-3.22-22.73,4.01-41.02,23.49-53.7,5.42-3.53,8.01-7.82,8.85-14.23,1.57-12.01,7.55-22.14,15.43-31.18,1.29-1.48,2.68-3.01,4.94-2.5,2.7.61,3.56,2.8,4,5.19.21,1.15.28,2.34.29,3.51.33,28.22,3.35,56.32,3.07,84.59-.17,17.46-4.3,33.24-12.89,48.19-4.71,8.18-10.13,15.85-15.52,23.57-7.28,10.42-10.22,21.65-6.72,34.48,8.97,32.85,13.97,66.76,26.75,98.6,6.86,17.09,13,34.47,21.81,50.74,2.86,5.28,6.52,9.82,11,13.67,9.4,8.07,18.14,7.65,27.2-.64,8.42-7.71,13.23-17.69,16.72-28.04,16.12-47.78,38.62-92.55,63.05-136.45,9.35-16.81,21.06-32.13,31.71-48.12,4.34-6.52,8.61-13.12,13.39-19.32,21.18-27.51,48.09-46.89,81.72-56.32,30.06-8.43,57.04-3.45,81.13,17.52,33.68,29.32,58.39,63.99,70.48,107.56,9.82,35.41,11.3,71.35,7.66,107.34-2.72,26.91-15.2,50.86-29.58,73.64-6.1,9.66-13.7,18.14-20.45,27.27-7.92,10.72-7.53,15.84,1.86,25.64,7.42,7.75,16.59,13.12,25.6,18.66,39.41,24.26,78.35,49.27,116.17,75.91,27.55,19.4,55.66,38.07,81.94,59.28,6.64,5.36,8.73,10.52,7.33,19.11Z"
		/>
		<path
			class="cls-4"
			d="M1792.87,1794.62c-16.98-17.97-33.34-36.39-45.39-58.27-6.99-12.69-14.82-24.92-22.28-37.36-18.75-31.28-36.17-63.28-52.08-96.1-13.51-27.89-23.89-57.12-36.05-85.59-7.53-17.64-15.54-35.14-21.08-53.58-.85-2.85-1.47-6.98-5.74-5.72-3.26.96-1.95,4.63-2.01,7.2-.62,23.22-4.93,45.87-10.21,68.39-8.85,37.71-28.1,67.65-63.2,86.14-5.49,2.9-10.76,6.46-14.94,11.31-3.04,3.54-7.38,6.82-4.84,12.17,2.17,4.58,6.76,6.49,11.62,6.9,3.48.29,7.13.24,10.52-.5,6.11-1.34,12.23-2.92,18.08-5.1,17.34-6.46,33.67-14.87,48.5-26.08,7.37-5.56,8.62-5.24,13.55,2.55.84,1.32,1.52,2.75,2.33,4.09,26.48,44,53.06,87.94,80.99,131.05,11.52,17.79,26.46,33,38.08,50.76,4.67,7.14,6.13,12.72,2.65,21.36-7.56,18.79-15.32,37.8-14.78,58.83.66,25.67,6.13,49.73,21.99,70.61,2.17,2.85,4.31,5.5,2.74,9.54-6.38,16.43-6.38,33.69-6.45,53.53-.68,13.14,2.03,28.68,2.68,44.35.51,12.43,9.28,16.4,19.23,9.27,5.77-4.14,10.7-9.28,14.77-15.07,18.95-26.9,31.63-56.75,40.63-88.22,3-10.49,1.37-13.86-8.95-18.44-10.83-4.8-18.89-12.69-25.89-21.66-5.56-7.12-9.75-15.25-9.63-24.76.02-1.33-.15-3.4,2.24-3.31,1.31.05,1.97,1.01,2.3,2.2.2.76.3,1.56.61,2.27,8.79,19.71,20.67,35.15,45.22,34.42,6.88-.2,8.6,2.17,9,9.49.25,4.7.19,9.41.15,14.12-.04,4.43,1.06,8.54,3.14,12.41,4.44,8.27,9.41,8.51,14.78.71.89-1.29,2.11-2.65,2.27-4.08,1.26-11.59,6.16-22.39,6.2-34.33.1-32.06-11.71-60.52-26.17-88.03-11.39-21.67-27.8-39.76-44.54-57.46ZM1852.66,1965.36c-.51,1.91-1.38,4.08-3.59,4.01-2.55-.08-2.54-2.53-2.56-4.45-.05-5.1.28-10.21-.03-15.29-.67-10.98-6.26-17.59-16.86-17.04-22.29,1.16-32.56-12.09-39.22-30.35-1.62-4.45-3.21-8.9-5.92-12.75-3.51-4.98-7.63-5-11.48-.17-3.85,4.82-4.97,10.49-4.63,16.6,1.1,19.59,12.11,33.46,26.27,45.42,3.26,2.75,7.14,4.82,10.89,6.93,9.32,5.27,10.01,6.37,6.58,16.69-3.21,9.66-6.29,19.45-10.58,28.65-8.42,18.07-15.83,36.79-28.58,52.5-3.78,4.65-7.33,12.45-14.01,10.11-4.73-1.65-3.39-9.73-3.69-14.95-.56-9.77-.16-19.6-.16-29.4-.41-13.71-1.25-27.46,1.5-41.04.23-1.15-.11-2.57.45-3.47,7.73-12.3.64-20.88-5.65-31.36-15.27-25.48-19.02-53.52-12.08-82.65,2.73-11.45,5.72-23.02,11.2-33.37,5.5-10.39,3.25-18.66-3.23-27.05-8.38-10.85-16.74-21.73-25.06-32.63-23.83-31.23-43.61-65.1-64.12-98.48-12.11-19.7-23.9-39.59-35.85-59.39-.61-1-1.3-1.97-2.03-2.88-5.52-6.88-7.41-7.4-14.45-1.95-14.7,11.39-30.72,20.36-48.17,26.66-8.46,3.06-17.2,5.35-25.84,7.88-1.92.56-4.09.5-5.28-1.38-1.62-2.56-.01-4.59,1.95-5.95,5.15-3.58,10.29-7.21,15.72-10.33,32.48-18.67,51.74-47.1,61.24-82.72,3.84-14.37,6.95-28.92,9.44-43.6.35-2.05-.6-5.41,2.83-5.35,2.95.05,2.77,3.34,3.51,5.38,11.15,30.97,22.83,61.73,36.08,91.88,17.07,38.84,37.83,75.74,59.45,112.14,9.8,16.5,18.78,33.5,29.81,49.27,16.67,23.84,36.29,45.19,55.75,66.66,27.67,30.53,43.3,66.86,52.05,106.48,2.99,13.52,1.92,27.28-1.66,40.73Z"
		/>
		<path
			class="cls-4"
			d="M1510.59,1211.97c8.46-15.14,13.94-31.53,20.38-47.5,1.38-3.42,6.73-8.39,1.68-10.84-4.2-2.04-6.25,4.8-8.36,8.15-6.08,9.69-12.71,18.71-21.43,26.31-28.85,25.15-63.62,31.4-99.94,29.64-36.24-1.76-67.3-16.73-92.57-43.25-8.39-8.81-17.01-17.38-24.3-27.16-1.39-1.86-3.37-4.25-5.76-2.82-2.52,1.5-.94,4.07.06,6.24,2.12,4.62,4.67,9.14,6.03,13.99,3.64,12.97,9.48,24.9,16.28,36.4,10.44,17.64,22.1,34.2,39.23,46.28,22.43,15.82,47.6,21.4,74.57,20.96,10.88-.68,21.91-.41,32.55-3.46,28.63-8.19,47.5-27.72,61.59-52.94ZM1444.25,1257.1c-9.74,2.4-19.48,1.1-29.15,1.88-29.28,2.06-54.96-6.72-77.18-25.59-16.76-14.23-27.43-33-37.79-51.93-.47-.86-.53-2.48-.03-3.25,1.33-2.04,2.86-.42,3.76.53,9.74,10.33,20.84,18.94,32.68,26.7,20.49,13.43,42.99,20.71,67.45,20.8,15.2.06,30.59,1.64,45.55-2.73,18.4-5.38,37.1-10.11,51.68-23.81,1.36-1.28,3.08-3.11,4.97-1.58,1.93,1.55.38,3.55-.45,5.26-12.93,26.55-31.6,46.37-61.48,53.72Z"
		/>
		<path
			class="cls-1"
			d="M1451.54,1157.57c42.04-17.59,70.02-62.09,70.13-110.83-.04-26.14-6.42-50.53-21.46-72.09-22.94-32.9-54.55-50.84-94.89-49-39.85,1.81-70.03,22.27-89.67,56.35-22.75,39.48-23.45,80.75-3.27,121.66,23.76,48.17,81.31,78.12,139.15,53.92ZM1334.05,998.88c9.79-24.15,27.75-39.86,52.05-49.53,22.78-9.07,60.07.5,78.23,21.84,18.55,21.81,27.93,46.87,26.71,75.97.76,31.32-10.27,58.17-33.74,79.28-35.98,32.37-82.78,26.06-111.56-12.75-26.33-35.51-27.99-74.63-11.7-114.81Z"
		/>
		<g>
			<path
				class="cls-7"
				d="M1879.95,1935.66c-2.66-23.91-9.52-46.74-17.44-69.33-3.12-8.91-5.95-17.93-10.98-25.95-21.27-33.92-44.12-66.67-70.18-97.18-17.59-20.59-34.17-42.16-46.46-66.38-18.48-36.4-32.92-74.63-48.22-112.43-14.28-35.29-28.44-70.57-47.02-103.87-7.48-13.41-16.8-25.54-27.27-36.78-3.96-4.25-8.28-7.29-14.46-5.57-6.07,1.69-7.03,6.78-7.81,11.93-3.24,21.28-7.43,42.42-8.61,63.99-.49,8.99-1.05,18.05-2.61,26.89-1.9,10.77-3.62,21.68-8.04,31.85-.81,1.85-2.14,3.69-4.3,3.02-1.48-.46-1.68-2.49-1.36-4.1,3.35-16.97,3.83-34.21,5.3-51.38,2.61-30.43-.1-60.15-8.86-89.43-5.58-18.67-15.23-35.29-25.26-51.65-9.21-15.01-19.5-29.38-29.7-43.76-3.09-4.35-2.63-6.59,1.8-9.25,9.07-5.44,18.44-10.44,26.78-17.05,3.08-2.44,5.84-1.74,7.83,1.6,1.2,2.02,2.24,4.14,3.31,6.23,13.96,27.22,27.92,54.45,41.88,81.68,3.37,6.57,5.12,7.28,10.64,4.28,7.8-4.24,8.39-5.8,4.9-12.45-14.93-28.47-29.83-56.97-44.79-85.42-5.6-10.64-5.64-10.71,3.3-18.61,6.1-5.38,6.85-5.38,11.76,1.35,7.86,10.78,15.5,21.71,23.39,32.46,2.3,3.14,4.87,6.2,7.76,8.79,4.71,4.23,7.9,3.59,11.62-1.49,3.94-5.38,2.62-10.08-1.13-14.97-9.79-12.76-19.15-25.85-29.15-38.44-3.76-4.73-3.76-8.17.66-11.97,1.19-1.02,2.18-2.26,3.26-3.39q8.14-8.55,16.36-.59c23.21,22.28,46.43,44.55,69.7,66.78,2.54,2.43,5.25,4.73,8.09,6.79,4.31,3.13,8.02,1.85,11.31-1.95,5.57-6.44,4.68-13.69-3.76-20.11-27-20.54-49.42-45.88-73.49-69.48-6.55-6.42-6.36-6.57-.63-13.19,2.05-2.37,4.08-4.76,5.94-7.28,5.54-7.5,5.65-7.66,12.13-1.19,9.46,9.44,19.28,18.44,30.25,26.11,4.83,3.38,9.9,6.41,15.99,7.05,3.94.41,8.06,1.02,10.84-2.65,3.02-4,2-8.16-.42-12.08-3.31-5.35-6.96-10.42-11.67-14.7-8.44-7.68-17.68-14.27-27.02-20.8-16.26-11.38-16.17-11.51-6.23-27.99,4.69-7.77,4.56-7.5,12.53-3.64,30.69,14.89,60.98,30.69,93.19,42.21,9.87,3.53,14.61.98,20.1-10.29,3.29-6.76,2.56-8.36-6.86-14.41-2.31-1.48-4.61-3.05-7.11-4.14-30.9-13.58-62-26.62-94.66-35.51-2.65-.72-5.3-1.44-7.91-2.28-3.24-1.04-4.67-3.85-3.1-6.42,3-4.92-.36-12.28,6.17-15.54.82-.41,2.37.07,3.33.6,5.31,2.94,11.37,2.93,17.05,4.26,13.33,3.14,26.73,6.2,40.57,6.23,7.88.02,11.93-2.7,13.09-8.93,1.21-6.47-2.26-12.34-8.87-14.76-1.45-.53-3.05-.72-4.6-.95-8.91-1.32-17.81-2.71-26.74-3.87-8.55-1.12-17.13-2.05-25.7-2.97-5.03-.54-6.76-3.37-5.86-8.1.75-3.93,1.29-7.63,7.12-7.1,27.41,2.5,54.89.76,82.33.58,10.14-.06,20.35-1.35,30.39-2.98,8.19-1.33,12.45-6.82,12.21-13.51-.19-5.16-3.87-8.08-13.08-9.16-17.59-2.06-35.28-1.99-52.84-.17-19.21,1.99-38.41,1.11-57.62,1.31-4.92.05-7.22-2.33-7.07-7.19.27-9.12-1.93-17.9-3.71-26.74-1.52-7.54-1-8.12,6.08-9.22,15.06-2.35,30.11-4.76,45.17-7.14,4.75-.75,9.06-2.74,12.98-5.31,6.93-4.56,7.45-13.14,1.74-19.24-4.47-4.78-9.75-4.38-15.25-2.96-17.08,4.41-34.68,6.61-51.47,12.14-4.18,1.38-6.74.71-8.37-3.43-2.3-5.82-3.84-11.91-7.04-17.42-2.02-3.48.34-6.04,3.34-7.6,6.26-3.25,12.43-6.8,18.99-9.31,28.28-10.81,55.58-23.65,81.76-38.83,3.04-1.76,6.05-3.64,8.78-5.84,3.46-2.78,4.14-6.52,2.4-10.6-1.64-3.85-4.2-6.63-8.69-6.89-3.59-.21-7.03.55-10.34,1.88-16.72,6.74-33.63,12.94-49.75,21.21-18.49,9.49-37.5,17.97-56.34,26.77-6.32,2.95-8.27,1.37-13.74-8.05-3.3-5.69.1-7.7,4.1-9.95,12.34-6.95,23.55-15.58,34.98-23.86,3.46-2.51,6.79-5.45,9.42-8.79,3.89-4.94,2.43-8.92-3.14-15.54-3.92-4.66-6.92-3.28-10.92-.42-7.65,5.47-15.71,10.32-23.12,16.19-7.07,5.59-14.67,10.49-22.02,15.72-2.71,1.93-5.63,3.51-8.43.65-4.53-4.63-5.59-11.13-7.87-16.86-1.7-4.25,3.06-6.75,5.63-9.51,14.98-16.07,30.3-31.82,44.98-48.15,9.16-10.19,18.97-19.86,26.8-31.22,4.81-6.98,4.21-13.42-1.92-18.51-4.87-4.04-10.08-3.15-16.45,2.87-1.43,1.35-2.86,2.7-4.17,4.16-22.71,25.45-46.75,49.72-68.35,76.16-1.73,2.12-3.38,4.38-5.44,6.16-5.31,4.6-9.77.15-13.78-2.26-4.72-2.83-.68-5.89,1.06-8.7,7.87-12.68,14.14-26.22,21.25-39.3,3.16-5.81,2.17-9.5-2.44-13.15-4.95-3.91-9.31-3.46-14.46,1.74-4.73,4.77-8.21,10.48-11.6,16.24-4.38,7.44-8.78,14.86-13.2,22.27-1.42,2.38-2.88,4.76-6.2,4.62-7.55-.33-12.48-7.75-9.44-14.74,7.66-17.62,15.37-35.21,23.39-52.67,8.01-17.45,15.99-34.91,22.11-53.14,3.1-9.23-1.85-16.13-11.15-15.92-5.62.13-8.23,3.97-10.24,8.42-5.19,11.43-10.26,22.91-15.46,34.34-10.55,23.21-21.07,46.44-31.77,69.58-3.7,8.01-4.52,8.32-12.52,5.33-3.74-1.4-7.55-1.94-11.4-2.63-7.34-1.33-7.44-2.03-6.43-9.22,1.96-13.96,3.6-27.96,5.26-41.95.6-5.08-.59-9.46-6.06-11.37-8.87-3.08-17.59,1.81-19.82,11.01-2.05,8.45-2.58,17.04-2.45,25.7.07,4.69.14,9.37-.82,14.06-1.12,5.49-3.39,8.76-9.56,7.04-6.15-1.71-12.43-1.61-18.71-1.33-5.41.24-8.49-1.8-7.41-7.54,4.72-25.28,2.47-50.88,3.59-76.32.41-9.4.11-18.83.06-28.25-.02-4.04-.43-7.87-5.25-9.38-11.2-3.5-17.41.88-17.63,12.58-.03,1.57.03,3.14.03,4.71-.16,32.18-.26,64.37-.54,96.55-.08,8.54-2.21,10-10.58,9.66-6.36-.26-7.67-4.44-8.25-9.4-1.42-12.11-4.38-23.88-7.65-35.59-.97-3.46-2.26-6.58-4.68-9.34-3.76-4.27-7.67-4.65-12.47-1.7-7.79,4.79-9.54,9.06-7.36,18.95,2.62,11.85,5.01,23.76,7.83,35.56,1.06,4.42-.63,6.76-4.37,8.2-3.53,1.35-6.08-.1-7.82-3.22-.76-1.37-1.48-2.78-2.05-4.23-10.25-26.35-23.08-51.55-34.63-77.32-3.69-8.23-7.65-16.37-12.12-24.19-3.48-6.09-7.73-7.42-12.7-5.36-11.49,4.78-15.36,14.33-9.94,25.74,9.58,20.21,19.55,40.21,31.34,59.28,6.19,10,11.79,20.37,17.48,30.67,3.43,6.2,2.72,7.89-3.74,10.43-4,1.57-8.1,2.93-12.06,4.59-9.16,3.84-9.13,3.88-14.9-4.73-8.75-13.07-18.28-25.54-29.82-36.28-5.97-5.56-10.03-5.32-15.33-.2-6.14,5.92-6.4,9.48-1.23,15.86,8.88,10.96,17.79,21.9,26.59,32.93,5.43,6.8,5.2,7.7-2.19,12.54-.66.43-1.31.9-2.04,1.17-5.52,2.07-9.22,8.79-15.04,8.39-6.17-.43-8.11-7.89-12.32-11.87-18.25-17.24-36.19-34.81-54.36-52.14-7.37-7.04-15.01-13.79-22.54-20.66-2.34-2.13-4.85-4.69-8.25-3.3-5.88,2.39-8.49,8.04-10.89,13.27-2.02,4.41,1.99,7.24,4.83,9.8,9.03,8.14,18.19,16.13,27.37,24.1,18.36,15.93,36.77,31.81,55.16,47.72,2.06,1.78,5.16,3.72,3.94,6.57-2.21,5.16-7.15,8.2-11.63,11.19-3.11,2.07-5.76-.91-8.41-2.51-13.43-8.09-26.92-16.09-40.36-24.17-4.68-2.82-8.83-2.51-12.7,1.53-5.85,6.11-5.57,11.28,1.81,16.61,9.55,6.91,20.03,12.35,30.49,17.75,19.12,9.86,13.67,7.48,4.77,22.21-.2.34-.44.65-.67.97-2.1,2.9-4.69,4.01-8.13,2.35-3.54-1.7-7.11-3.33-10.65-5.02-31.53-15.1-64.71-26.14-97.03-39.29-7.86-3.2-12.11-1.45-14.35,4.62-2.03,5.51.04,10.15,6.56,13.05,20.78,9.25,41.58,18.48,62.53,27.34,13.72,5.81,27.76,10.86,41.57,16.46,7.37,2.99,7.56,4.07,4.25,11.34-2.93,6.42-5.79,12.87-8.54,19.37-3.45,8.16-3.31,7.98-11.98,4.27-12.26-5.24-24.76-9.89-36.96-15.26-6.01-2.64-9.77-.43-13.03,4.16-3.43,4.83-2.81,9.6.75,14.06,2.54,3.18,6.2,4.76,9.86,6.2,9.86,3.87,19.72,7.71,29.61,11.48,9.04,3.45,8.96,3.39,7.13,12.52-1.08,5.37-1.96,10.8-2.68,16.23-1.16,8.73-1.44,8.73-10.12,8.45-36.85-1.18-73.71-2.08-110.56-3.27-5.8-.19-9.74,2.06-12.69,6.79-4.23,6.78-4.26,6.77-11.21,2.53-11.49-7.01-17.17-6.83-27.95,1.12-2.2,1.62-4.2,3.55-6.12,5.5-15.09,15.26-25.38,33.39-34.24,52.94-26.05,57.48-37.53,116.86-27.85,179.78,1.55,10.06,1.97,20.26,5.56,29.95,3.12,8.42,5.93,16.93,8.44,25.58,2.8,9.64,6.47,19.22,12.11,27.95,16.1,24.88,34.19,47.86,59.31,64.31,6.51,4.26,9.59,9.09,9.35,17.31-.72,25.25,3,49.99,10.53,74.16,1.85,5.96,3.07,12.18,3.93,18.36,1.42,10.24,4.85,19.75,9.23,29,2.35,4.96,5.19,9.77,6.85,14.96,5.25,16.38,15.23,30.28,25.32,43.46,21.35,27.92,49.78,47.39,81.85,61.59,3.32,1.47,6.72,1.96,10.29,2.09,22.91.82,38.35-9.51,47.13-31.02,9.33-22.88,16.65-46.51,26.28-69.29,17.31-40.95,42.8-75.85,76.98-104,18.81-15.49,40.66-25.74,65.85-24.49,27.76,1.38,49.93,12.41,61.78,39.41,2.56,5.83,4.31,11.91,5.39,17.97,4.95,27.78,4.29,54.89-13.87,78.56-11.83,15.42-27.2,24.45-47.33,24.23-11.16-.12-21.6-3.74-32.33-5.87-14.92-2.96-14.85-3.33-23.94,9.16-.69.95-1.28,1.98-1.97,2.93-20.76,29.04-41.52,58.08-62.3,87.1-4.8,6.7-9.82,13.23-14.49,20.01-4.3,6.25-2.87,8.78,4.92,9.26.78.05,1.57,0,2.35,0h83.59s0-.09,0-.13c6.28,0,12.56.19,18.83-.03,50.39-1.79,100.21,1.34,149.36,13.91,40.19,10.28,78.59,24.52,114.25,45.79,10.91,6.51,20.31,14.9,26.44,26.21,8.8,16.23,1.48,32.83-16.41,37.74-3,.82-6.15,1.35-9.25,1.48-22,.88-43.88-.07-65.57-4.16-18.48-3.48-36.91-7.29-55.51-10.01-19.73-2.89-39.6-5.02-59.47-6.79-12.9-1.15-25.63-3.81-38.51-4.58-44.02-2.61-87.75,1.89-131.35,6.96-33.02,3.84-65.6,10.94-98.75,14.34-31.18,3.2-62.25,6.63-93.64,4.5-12.93-.87-24.58-4.76-33.75-14.42-11.03-11.62-11.65-24.36-1.97-37.02,4.08-5.33,8.75-9.94,13.95-14.22,8.26-6.81,17.63-11.7,26.83-16.92,25.71-14.61,52.61-26.12,81.63-32.56,9.93-2.2,19.59-5.63,29.33-8.63,2.31-.71,4.49-2.35,4.42-4.91-.09-3.22-3.07-3-5.34-3.17-20.71-1.57-41.4-4.14-62.13-4.43-46.98-.66-92.65,7.77-137.5,21.65-34.52,10.69-65.09,27.84-88.61,55.25-15.18,17.7-29.43,36.89-24.81,63.17,1.04,5.93,3.16,11.31,5.14,16.77,10.04,27.63,25.53,51.06,51.43,66.63,17.18,10.33,35.03,19.14,53.42,27.13,23.35,10.15,47.73,14.95,72.89,16.58,18.34,1.19,36.69,1.62,55.09,1,17.64-.59,35.42-.5,52.68-4.03,22.26-4.56,44.59-8.39,67.09-11.34,20.97-2.75,42.17-4.35,62.97-7.76,33.59-5.52,67.06-5.38,100.6-2.19,30.39,2.89,60.67,7.05,90.99,10.71,9.32,1.13,19.12,1,27.82,3.99,21.07,7.25,42.59,9.33,64.64,10.68,25.01,1.54,49.12-1.31,72.92-8.37,25.53-7.57,48.23-20.55,69.26-36.66,2.43-1.86,4.37-5.18,7.98-3.75,3.96,1.57,3.89,5.46,3.93,9.04.02,1.57.02,3.14-.06,4.71-1.19,23.49-2.37,46.98-3.6,70.46-.59,11.41.14,22.73,1.89,34,1.14,7.35,6.27,12.71,10.41,18.12,2.68,3.51,8.93,1.14,13.58,1.38,3.52.18,7.06.04,10.59-.02,1.97-.03,3.92-.23,5.5-1.64,13.98-12.55,28.1-24.91,37.92-41.34,6.87-11.51,11.9-23.83,17.32-36.01,3.04-6.83,4.73-7.34,9.77-1.81,5.21,5.71,10.2,5.86,16.72,2.68,8.59-4.2,14.53-10.44,17.91-19.3,4.64-12.16,6.89-24.91,9.6-37.57,1.51-7.07,1.45-13.97.66-21.03ZM1565.14,1558.21c.24.48.55.93.66,1.44.04.19-.41.48-.63.72-.25-.47-.5-.94-.75-1.39.27-.29.49-.53.72-.77ZM1195.08,987.15c12.55-37.1,36.19-65.52,66.89-88.79,35.18-26.67,74.71-43.14,118.46-48.11,71.43-8.11,135.67,8.92,188.81,59.13,27.5,25.98,43.42,59.18,53.65,95.2,5.71,20.12,8.17,40.72,7.89,61.68-.11,62.06-21.88,115.72-63.77,161.14-20.71,22.46-45.91,39.04-73.74,51.58-2.13.96-4.27,2.07-6.53,2.57-2.04.45-3.75-.75-4.81-2.61-1.11-1.96-.73-3.86.68-5.4,1.04-1.13,2.42-1.98,3.72-2.84,30.69-20.27,50.34-48.89,62.58-83.03,8.24-22.99,12.2-46.91,14.63-71.1,1.06-10.52,1.64-21.1,2.35-31.65.22-3.21-.02-6.76-3.6-7.87-3.77-1.17-5.68,2.02-7.12,4.79-4.18,7.99-8.17,16.08-12.21,24.15-9.17,18.32-20.44,35.32-33.76,50.82-19.27,22.43-44.85,33.63-73.29,39.1-6.14,1.18-12.42,1.68-18.64,2.49-30.64,4-56.58-6.77-81.34-23.91-31.75-21.97-54.58-51.35-74.51-83.6-2.78-4.5-5.13-12.88-10.37-11.1-6.67,2.26-.79,9.41-.49,14.41,1.26,20.87,5.62,41.16,12.64,60.8,11.28,31.54,25.85,61.41,46.92,87.71,4.64,5.79,10.12,10.91,15.32,16.24,2.61,2.67,5.06,5.37,2.31,9.14-2.76,3.78-6.13,2.22-9.42.56-69.24-34.88-115.01-88.76-130.82-165.44-8.03-38.98-5.33-77.93,7.56-116.03ZM1449,1264.92c-10.64,3.05-21.67,2.78-32.55,3.46-26.97.44-52.14-5.14-74.57-20.96-17.13-12.08-28.79-28.64-39.23-46.28-6.81-11.5-12.64-23.43-16.28-36.4-1.36-4.85-3.9-9.37-6.03-13.99-1-2.17-2.57-4.73-.06-6.24,2.39-1.43,4.38.96,5.76,2.82,7.29,9.78,15.91,18.35,24.3,27.16,25.27,26.53,56.33,41.5,92.57,43.25,36.32,1.76,71.09-4.48,99.94-29.64,8.72-7.6,15.35-16.63,21.43-26.31,2.11-3.35,4.16-10.19,8.36-8.15,5.04,2.44-.3,7.42-1.68,10.84-6.44,15.97-11.92,32.36-20.38,47.5-14.09,25.23-32.96,44.75-61.59,52.94ZM1164.92,1160.98c4.38-1.74,7.26-1.63,9.59,2.99,3.36,6.64,7.03,13.13,10.86,19.5,2.52,4.2,2.1,7.24-2.19,9.78-12.17,7.22-22.24,17.34-34.38,24.65-8.19,4.93-8.12,8.92-1.59,15.74,3.57,3.72,6.65,3.21,10.23.47,10.89-8.35,21.9-16.54,32.68-25.02,7.5-5.9,7.56-6,13.7,1.53,4.46,5.46,9.02,10.85,13.62,16.19,7.17,8.31,7.11,8.2-.06,15.96-22.08,23.9-44.01,47.94-66.18,71.76-3.84,4.13-5.15,7.32-.62,11.85,5.51,5.51,6.41,5.89,12.11.11,22.86-23.18,44.88-47.15,66.27-71.69q6.42-7.36,13.59-.99c4.11,3.64,8.13,7.39,12.42,10.81,3.9,3.1,4.17,5.98,1.03,9.89-6.38,7.95-12.59,16.04-18.6,24.27-4.04,5.53-3.55,7.82,1.23,11.94,3.72,3.21,6.7,3.15,9.8-1.01,6.1-8.17,12.36-16.22,18.76-24.15,5.95-7.37,6.64-7.45,14.2-2.16,5.82,4.07,12.09,7.27,18.44,10.35,4.41,2.14,4.41,4.81,1.24,8.22-29.96,32.33-55.04,68.37-78.6,105.4-20.68,32.5-36.82,67.29-47.33,104.57-3.29,11.67-7.84,22.99-11.84,34.46-.39,1.11-.89,2.18-1.4,3.23-1.59,3.29-3.61,6.24-7.66,6.46-4.7.26-6.73-3.1-8.68-6.7-15.04-27.78-24.5-57.56-30.98-88.3-2.58-12.21-7.62-24.04-6.36-35.49-1.84-11.94.25-21.64,5.95-30.64,2.52-3.97,4.41-8.38,7.22-12.12,11.9-15.83,14.58-34.35,15.78-53.26.62-9.77.3-19.56,1.82-29.32,1.72-11.03-1.2-21.97-3.24-32.58-2.1-10.9-3.17-21.65-3.22-32.63-.03-7.09-.43-14.13-2.78-20.9-3.55-10.21-9.63-14.45-20.41-12.58-7.57,1.31-7.01-4.38-8.89-8.2-2.3-4.68-.25-7.24,4.2-8.95,20.12-7.74,40.24-15.49,60.27-23.46ZM1031.28,1060.92c.82-3.07,3.61-2.18,5.87-2.16,1.57.01,3.14,0,4.7,0,0,.24-.01.49-.02.73,32.5,1,65,1.97,97.5,3.01,10.07.32,10.3.64,11.06,10.73,1.16,15.47,1.16,15.55-14.27,16.31-10.95.54-21.75,3.02-32.79,2.33-3.27-.2-6.23.97-8.58,3.22-2.93,2.82-5.16,6.16-3.71,10.44,1.62,4.78,5.72,4.68,9.77,4.27,14.81-1.47,29.61-3.09,44.43-4.4,8.92-.79,8.94-.53,11.27,7.78,1.8,6.41,3.35,12.92,5.72,19.11,2.03,5.3.42,8.21-4.45,10.09-5.49,2.11-11.01,4.15-16.44,6.37-12.69,5.2-25.37,10.42-38,15.77-8.32,3.52-8.26,3.63-11.14-5.33-4.81-14.95-11.03-29.39-17.77-43.5-8.37-17.54-21.44-31.73-35.38-45.08-1.7-1.63-3.55-3.09-5.24-4.72-1.41-1.36-3.06-2.97-2.52-4.99ZM1725.09,1834.22c-5.68,28.86-9.56,58.04-7.71,87.62.34,5.37-1.31,9.7-4.52,14.1-11.52,15.82-28.01,24.08-45.92,29-34.92,9.6-70.55,15.38-106.92,12.17-17.52-1.55-34.84-5.22-52.31-7.54-32.59-4.33-64.59-12.71-97.48-14.81-20.34-1.3-40.7-2.02-61.07.9-11.61,1.67-23.4,2.51-35.14,2.81-32.67.85-64.61,6.3-96.48,13.15-28.35,6.09-57.17,10.3-86.05,12-24.18,1.42-48.54-1.27-72.66-4.55-12.41-1.69-24.84-3.25-37-6.39-33.32-8.63-64.81-21.25-92.12-42.8-3.07-2.42-5.78-5.32-8.85-7.74-31.16-24.55-26.59-74.47-4-100.8,17.67-20.59,39.39-34.56,64.5-43.63,16.57-5.99,32.79-12.92,49.91-17.5,19.85-5.3,40.2-6.23,60.42-8.39,2.39-.25,5.3-.12,5.68,2.75.47,3.47-2.83,4.26-5.36,5.21-24.93,9.37-46.7,23.87-66.73,41.16-8.09,6.98-14.5,15.37-19.72,24.72-6.17,11.05-5.61,21.73,1.36,32.14,11.95,17.87,28.31,28.92,49.74,32.31,25.68,4.06,51.49,4.01,77.33,2.63,4.65-.25,9.34-1.26,13.85-2.5,31.08-8.59,63.14-11.51,94.81-16.74,41.83-6.91,83.9-11.68,126.3-11.04,29.74.45,59.38,2.88,88.91,7.7,38.61,6.31,76.9,14.8,115.88,18.73,17.58,1.77,35.24,2.2,52.78-.79,29.68-5.06,46.12-39.77,30.29-65.39-13.07-21.14-31.88-36.71-53.78-48.08-32.51-16.87-66.76-29.38-102.67-36.72-13.77-2.82-27.9-4.1-41.94-5.24-43.75-3.55-87.48-7.58-136.94-6.95-7.86,0-21.2.15-34.54-.05-10.52-.15-12.04-3.01-6.55-11.89,13.85-22.36,29.54-43.46,44.64-64.97,4.83-6.88,10.31-9.9,19.01-6.8,14.74,5.24,30.35,4.88,45.45,3.17,21.43-2.42,37.68-14.65,50.11-31.9,10.36-14.37,15.05-31.05,17.49-48.2,1.82-12.74,3.69-25.51,3.48-38.57-.73-45.27-36.29-82.7-84.25-83.83-32.26-.76-61.1,9.4-87.24,27.26-11.62,7.94-20.74,19.15-30.2,29.61-8.41,9.29-15.89,19.42-23.91,29.06-17.42,20.93-26.15,46.29-36.13,70.98-6.17,15.26-11.49,30.87-17.39,46.25-6.81,17.75-15.11,22.19-32.77,15.89-29.33-10.44-52.45-29.44-70.22-54.75-17.08-24.32-26.46-52.11-36.31-79.94-9-25.39-12.41-51.73-18.36-77.63,2.92-27.36-18.34-41.51-32.76-59.22-6.66-8.18-14.95-15.01-22.16-22.77-17.6-18.93-27.95-41.23-31.54-66.93-4.13-29.53-7.35-59.07-6.56-88.94,1.16-44.35,15.45-84.44,39.49-121.33,4.5-6.9,9.71-13.34,15.71-19.01,6.66-6.29,8.86-6.06,16.15-.86,10.71,7.63,18.87,17.81,26.88,27.88,12.21,15.34,23.34,31.59,30.64,49.99,5.96,15.01,8.73,30.82,10.11,46.85.64,7.41-.47,14.93,1.12,22.3.8,3.73-.51,6.91-2.02,10.15-3.02,6.47-5.28,13.23-4.33,20.45.96,7.33-1.39,13.02-6.96,17.67-14.11,11.77-19.56,27.97-22.94,45.2-.84,4.28-1.22,8.59.27,12.79,1.06,2.98,2.23,6.23,6.41,5.41,3.2-.63,4.29-3.15,4.39-6.13.09-2.74.17-5.5.01-8.24-1.07-18.83,6.5-33.69,21.36-44.69,6.08-4.5,9.34-9.8,11.23-17.08,3.3-12.7,9.85-23.91,19.33-33.15,9.59-9.34,18.97-6.84,22.84,5.98.56,1.86.97,3.85.97,5.78-.08,27.86,4.42,55.47,4.19,83.35-.2,24.39-7.54,46.32-21.5,66.02-19.05,26.89-19.01,26.72-10.51,58.3,4.07,15.11,6.58,30.64,10.86,45.68,7.1,24.91,16.04,49.22,26.5,72.92,2.68,6.07,5.93,11.99,9.66,17.47,7.39,10.85,17.18,10.72,24.51-.24,7.94-11.87,11.65-25.67,16.8-38.79,22.27-56.79,48.85-111.29,84.76-160.89,5.52-7.62,10.37-15.73,15.87-23.36,22.59-31.32,52.5-52.6,89.64-62.91,30.42-8.44,58.6-4.65,83.78,16.7,34.52,29.28,62.29,62.95,75.36,107.12,7.93,26.78,13.01,53.99,13.31,82.08.54,51.8-17.77,96.47-50.38,135.9-10.4,12.57-10.16,16.86,3.59,25.98,20.25,13.43,41.01,26.09,61.38,39.35,35.16,22.89,70.28,45.84,104.08,70.78,15.45,11.4,31.35,22.22,46.62,33.88,1.25.95,2.48,1.92,3.76,2.83,10.78,7.59,14.01,17.2,11.38,30.54ZM1548.19,1666.06c.35-2.31,2.53-2.81,4.33-3.36,16.97-5.22,33.19-11.91,47.09-23.35.86-.71,2.1-.95,2.99-1.33,4.41.33,5.97,3.72,7.9,6.61,9.13,13.71,18.47,27.29,27.27,41.2,10.08,15.93,21.02,31.22,32.76,45.94,6.4,8.03,10.88,17.22,16.36,25.8.8,1.25,1.75,2.88.18,4.19-1.43,1.2-3.02.4-4.25-.51-8.81-6.54-17.57-13.15-26.34-19.74-25.38-19.07-50.21-38.91-76.96-56.06-8.89-5.7-18.49-10.29-27.74-15.42-1.62-.9-3.98-1.39-3.59-3.97ZM1857.38,1974.45c-.15,1.43-1.38,2.8-2.27,4.08-5.37,7.8-10.34,7.56-14.78-.71-2.08-3.87-3.18-7.98-3.14-12.41.05-4.71.11-9.42-.15-14.12-.39-7.32-2.12-9.69-9-9.49-24.54.73-36.43-14.71-45.22-34.42-.31-.71-.41-1.51-.61-2.27-.32-1.2-.98-2.16-2.3-2.2-2.38-.09-2.22,1.98-2.24,3.31-.12,9.51,4.07,17.64,9.63,24.76,7.01,8.97,15.07,16.86,25.89,21.66,10.32,4.57,11.94,7.95,8.95,18.44-9,31.47-21.68,61.32-40.63,88.22-4.08,5.78-9,10.93-14.77,15.07-9.95,7.13-18.72,3.16-19.23-9.27-.64-15.67-3.35-31.21-2.68-44.35.07-19.83.07-37.1,6.45-53.53,1.57-4.04-.57-6.69-2.74-9.54-15.86-20.88-21.33-44.94-21.99-70.61-.54-21.03,7.22-40.03,14.78-58.83,3.48-8.65,2.02-14.22-2.65-21.36-11.62-17.76-26.56-32.97-38.08-50.76-27.92-43.11-54.51-87.04-80.99-131.05-.81-1.34-1.49-2.77-2.33-4.09-4.93-7.79-6.18-8.11-13.55-2.55-14.83,11.2-31.16,19.62-48.5,26.08-5.85,2.18-11.97,3.76-18.08,5.1-3.39.74-7.04.79-10.52.5-4.85-.41-9.45-2.32-11.62-6.9-2.54-5.35,1.8-8.64,4.84-12.17,4.17-4.85,9.44-8.42,14.94-11.31,35.09-18.5,54.35-48.43,63.2-86.14,5.29-22.52,9.59-45.18,10.21-68.39.07-2.57-1.24-6.24,2.01-7.2,4.28-1.26,4.89,2.87,5.74,5.72,5.54,18.45,13.54,35.95,21.08,53.58,12.16,28.47,22.53,57.7,36.05,85.59,15.9,32.82,33.33,64.82,52.08,96.1,7.46,12.44,15.28,24.67,22.28,37.36,12.05,21.88,28.41,40.3,45.39,58.27,16.73,17.71,33.15,35.79,44.54,57.46,14.46,27.52,26.27,55.98,26.17,88.03-.04,11.94-4.95,22.75-6.2,34.33Z"
			/>
			<path
				class="cls-8"
				d="M1708.26,1810.75c-26.28-21.21-54.39-39.88-81.94-59.28-37.82-26.64-76.76-51.65-116.17-75.91-9.01-5.54-18.18-10.91-25.6-18.66-9.39-9.8-9.78-14.92-1.86-25.64,6.75-9.14,14.35-17.61,20.45-27.27,14.38-22.78,26.86-46.73,29.58-73.64,3.64-35.99,2.17-71.93-7.66-107.34-12.09-43.57-36.8-78.23-70.48-107.56-24.09-20.97-51.07-25.95-81.13-17.52-33.63,9.43-60.54,28.81-81.72,56.32-4.77,6.2-9.04,12.8-13.39,19.32-10.65,15.99-22.36,31.31-31.71,48.12-24.42,43.89-46.93,88.67-63.05,136.45-3.49,10.35-8.3,20.33-16.72,28.04-9.06,8.29-17.81,8.72-27.2.64-4.48-3.85-8.14-8.39-11-13.67-8.81-16.26-14.95-33.64-21.81-50.74-12.78-31.84-17.79-65.75-26.75-98.6-3.5-12.84-.57-24.07,6.72-34.48,5.4-7.72,10.82-15.39,15.52-23.57,8.6-14.95,12.72-30.73,12.89-48.19.28-28.28-2.74-56.38-3.07-84.59-.01-1.17-.08-2.36-.29-3.51-.44-2.39-1.3-4.58-4-5.19-2.26-.51-3.65,1.02-4.94,2.5-7.89,9.03-13.86,19.17-15.43,31.18-.84,6.41-3.44,10.71-8.85,14.23-19.47,12.69-26.7,30.97-23.49,53.7.16,1.16.43,2.31.68,3.46,1.18,5.44-1.62,8.09-6.5,9.19-16.31,3.68-25.47-3.32-24.68-20.25.93-20.05,6.58-38.71,21.61-53.09,6.01-5.74,10.3-11.55,8.79-20.4-.59-3.46-.15-7.22,1.47-10.38,5.26-10.24,4.26-21.05,4-32.01-.7-30.29-9.56-57.78-26.7-82.69-9.59-13.93-19.83-27.3-32.55-38.57-5.95-5.27-7.23-5.36-12.58.43-4.24,4.59-7.98,9.67-11.58,14.79-12.57,17.84-19.95,38.08-27.25,58.43-8.09,22.55-11.09,45.96-9.53,69.44,1.6,24.19,2.3,48.49,5.9,72.59,3.33,22.28,10.72,42.42,25.23,59.83,16.07,19.29,35.15,35.75,51.09,55.2,6.31,7.7,10.36,15.45,10.57,25.32.11,5.08-.1,10.31.98,15.21,5.58,25.19,9.5,50.64,18.19,75.26,9.58,27.12,19.04,53.92,35.9,77.56,13.78,19.31,32.28,32.91,52.71,44.14,4.39,2.41,9.52,3.71,14.47,4.86,8.65,2,12.43.09,15.7-7.99,5.44-13.44,10.57-27.02,15.8-40.55,9.19-23.74,16.88-48.22,31.63-69.34,16.43-23.51,34.91-45.35,55.47-65.42,4.25-4.15,8.76-7.9,13.84-10.86,13.22-7.69,26.54-15.21,41.31-19.69,31.92-9.68,63.45-11.07,93.3,6.36,29.51,17.23,46.16,42.84,47.32,77.59.7,20.94-1.95,41.58-7.63,61.63-7.96,28.07-24.36,49.81-51.28,62.48-21.32,10.04-43.51,8.63-65.5,3.12-6.84-1.71-11.21-.95-15.11,4.7-12.26,17.74-24.73,35.34-36.92,53.14-3.63,5.3-2.8,6.81,3.46,6.9,12.16.18,24.33.05,36.49.05,18.42.1,36.81,1.01,55.21,1.83,18.8.84,37.56,2.41,56.32,3.55,19.11,1.16,38.19,4.05,57.08,7.32,37.05,6.41,71.48,20.75,104.8,37.55,21.95,11.06,40.54,26.84,55.17,46.76,23.97,32.63,2.45,72.28-26.08,82.37-7.81,2.76-16.23,2.41-24.41,2.95-22.43,1.47-44.7-.7-66.65-4.92-11.95-2.3-24.08-2.76-35.96-5.37-42.94-9.42-86.39-15.17-130.32-16.74-39.68-1.42-79.04,2.94-118.29,8.22-16.29,2.19-32.45,5.38-48.76,7.38-13.23,1.62-26.4,3.42-39.36,6.53-10.28,2.47-20.43,6.26-30.85,7.24-30.94,2.91-61.96,2.78-92.49-3.86-21.23-4.62-37.9-16.47-49.46-35.14-8.63-13.94-8.76-28.17-1.14-42.42,3.7-6.91,8.32-13.25,13.91-18.88,12.27-12.37,26.38-22.18,41.55-30.58,2.06-1.14,4.18-2.18,6.14-3.46.98-.64,1.41-1.92.77-2.97-.31-.5-1.41-.8-2.11-.72-1.93.22-3.83.7-5.74,1.06-27.18,5.09-52.37,16.25-77.87,26.22-18.4,7.2-34.41,18.51-48.04,33.17-22.35,24.05-30.81,68.47,4.48,96.92,21.74,17.52,46.28,29.49,72.65,37.72,17.54,5.47,35.6,8.6,53.92,11.26,22.56,3.26,45.07,5.48,67.73,5.38,27.11-.12,53.81-5.29,80.31-10.3,39.68-7.5,79.24-15.12,119.79-15.58,6.27-.07,12.49-1.1,18.72-1.66,14.82-1.34,29.78-3.07,44.57-2.4,30.51,1.39,60.71,6.05,90.8,11.43,14.26,2.55,29.02,2.61,43.06,5.92,26.98,6.35,53.87,9.15,81.51,5.57,24.53-3.18,48.82-7,72.18-15.54,10.6-3.87,19.37-10.1,26.89-18.38,3.04-3.35,4.89-6.87,4.6-11.6-1.91-31.12,2.67-61.77,7.67-92.3,1.41-8.59-.69-13.75-7.33-19.11Z"
			/>
		</g>
		<path
			class="cls-6"
			d="M1746.53,1751.49c-11.04-15.78-20.01-32.78-29.81-49.27-21.63-36.4-42.39-73.3-59.45-112.14-13.25-30.15-24.93-60.91-36.08-91.88-.74-2.05-.55-5.33-3.51-5.38-3.43-.06-2.48,3.3-2.83,5.35-2.49,14.68-5.61,29.22-9.44,43.6-9.5,35.62-28.76,64.05-61.24,82.72-5.43,3.12-10.57,6.75-15.72,10.33-1.96,1.36-3.57,3.4-1.95,5.95,1.2,1.88,3.36,1.94,5.28,1.38,8.64-2.54,17.38-4.83,25.84-7.88,17.45-6.3,33.46-15.27,48.17-26.66,7.04-5.46,8.94-4.93,14.45,1.95.73.92,1.42,1.88,2.03,2.88,11.95,19.8,23.75,39.69,35.85,59.39,20.51,33.39,40.29,67.26,64.12,98.48,8.32,10.9,16.68,21.78,25.06,32.63,6.48,8.39,8.73,16.66,3.23,27.05-5.48,10.35-8.47,21.92-11.2,33.37-6.95,29.13-3.2,57.17,12.08,82.65,6.28,10.48,13.38,19.06,5.65,31.36-.56.9-.22,2.32-.45,3.47-2.75,13.58-1.91,27.33-1.5,41.04,0,9.8-.4,19.63.16,29.4.3,5.23-1.04,13.3,3.69,14.95,6.69,2.34,10.23-5.46,14.01-10.11,12.75-15.7,20.16-34.42,28.58-52.5,4.29-9.2,7.38-18.99,10.58-28.65,3.42-10.32,2.74-11.41-6.58-16.69-3.74-2.12-7.63-4.18-10.89-6.93-14.16-11.96-25.17-25.83-26.27-45.42-.34-6.1.78-11.78,4.63-16.6,3.85-4.82,7.97-4.81,11.48.17,2.71,3.85,4.29,8.3,5.92,12.75,6.66,18.26,16.93,31.52,39.22,30.35,10.6-.55,16.19,6.06,16.86,17.04.31,5.08-.02,10.19.03,15.29.02,1.92,0,4.37,2.56,4.45,2.2.07,3.08-2.1,3.59-4.01,3.58-13.45,4.65-27.21,1.66-40.73-8.75-39.62-24.38-75.94-52.05-106.48-19.45-21.47-39.07-42.82-55.75-66.66Z"
		/>
		<path
			class="cls-1"
			d="M1506.18,1198.12c-1.9-1.53-3.61.3-4.97,1.58-14.58,13.7-33.28,18.43-51.68,23.81-14.96,4.37-30.35,2.79-45.55,2.73-24.46-.1-46.96-7.38-67.45-20.8-11.83-7.76-22.94-16.37-32.68-26.7-.9-.95-2.43-2.56-3.76-.53-.5.77-.44,2.38.03,3.25,10.36,18.93,21.03,37.71,37.79,51.93,22.23,18.87,47.91,27.65,77.18,25.59,9.66-.78,19.4.52,29.15-1.88,29.87-7.35,48.55-27.16,61.48-53.72.83-1.71,2.38-3.71.45-5.26Z"
		/>
		<path
			class="cls-4"
			d="M1457.3,1126.44c23.46-21.11,34.5-47.96,33.74-79.28,1.22-29.1-8.16-54.16-26.71-75.97-18.16-21.34-55.45-30.91-78.23-21.84-24.3,9.67-42.26,25.39-52.05,49.53-16.29,40.18-14.63,79.3,11.7,114.81,28.78,38.81,75.58,45.12,111.56,12.75ZM1353.74,983.68c31.13-39,83.4-37.36,111.36,3.85,14.56,21.46,18.86,45.23,16.15,70.61-1.64,15.39-6.07,29.87-13.89,43.3-16.23,27.89-47.08,41.42-77.08,33.51-15.44-4.08-27.27-13.63-36.47-26.26-13.52-18.56-21.58-39.01-19.24-60.14-.79-25.43,4.4-46.4,19.16-64.88Z"
		/>
		<path
			class="cls-1"
			d="M1353.82,1108.7c9.2,12.62,21.03,22.18,36.47,26.26,30,7.92,60.85-5.62,77.08-33.51,7.82-13.43,12.25-27.91,13.89-43.3,2.7-25.39-1.59-49.16-16.15-70.61-27.97-41.22-80.23-42.85-111.36-3.85-14.75,18.48-19.95,39.46-19.16,64.88-2.34,21.12,5.72,41.58,19.24,60.14Z"
		/>
	</g>
	<g>
		<path
			class="cls-5"
			d="M1111.7,2313.48l-2.36,1.99c-6.39-2.13-11.58-5-15.57-8.6-3.99-3.6-6.69-7.61-8.1-12.04-1.4-4.43-1.31-9.01.26-13.73,1.61-4.82,4.45-8.7,8.53-11.66,4.08-2.96,8.92-4.76,14.54-5.41,5.62-.65,11.48.05,17.59,2.09,2.5.84,5.63,2.03,9.37,3.59,3.75,1.56,7.2,2.87,10.35,3.92,3.33,1.11,6.52,2.13,9.56,3.04,3.04.91,5.76,1.77,8.17,2.57.28.09.32.42.14.97-.19.56-.42.79-.7.69-2.59-.86-4.68-1.31-6.27-1.32-1.59-.02-2.92.57-3.98,1.76-1.07,1.19-2.05,3.12-2.94,5.81l-21.47,64.3c-.9,2.68-1.29,4.79-1.18,6.32.11,1.53.79,2.79,2.06,3.77,1.27.99,3.2,1.92,5.79,2.78.19.06.18.37,0,.93-.19.55-.37.8-.56.74-2.41-.8-5.07-1.77-7.98-2.9-2.92-1.13-6.04-2.25-9.37-3.36-2.68-.9-5.51-1.68-8.47-2.37-2.96-.68-5.92-1.51-8.89-2.5-5.55-1.86-10.07-4.11-13.56-6.77-3.48-2.66-5.85-5.66-7.1-9.01-1.25-3.35-1.21-7.02.12-11,1.7-5.09,5.29-9.06,10.77-11.92,5.48-2.85,12.57-3.75,21.28-2.7ZM1103.3,2352.5c1.76.59,3.27.78,4.51.58,1.25-.2,2.29-.86,3.13-1.97.83-1.11,1.64-2.83,2.41-5.14l9.09-27.22,4.81,2.69c-3.02-1.11-5.5-2.02-7.43-2.71-1.93-.7-2.98-1.07-3.17-1.14-5-1.67-9.38-1.05-13.13,1.87-3.75,2.91-6.52,7.06-8.32,12.43-1.17,3.52-1.63,6.66-1.37,9.42.26,2.76,1.19,5.08,2.77,6.95,1.59,1.87,3.82,3.28,6.69,4.24ZM1127.79,2270.39c-6.39-2.13-11.57-2.04-15.53.29-3.97,2.33-6.96,6.5-8.97,12.52-2.29,6.85-2.51,12.98-.66,18.38,1.85,5.4,6.38,9.31,13.61,11.72.93.31,2.51.81,4.74,1.51,2.24.69,4.68,1.23,7.34,1.6l-5.14.13,11.55-34.58c.62-1.85.93-3.47.93-4.86,0-1.39-.59-2.62-1.78-3.68-1.19-1.07-3.22-2.08-6.09-3.03Z"
		/>
		<path
			class="cls-5"
			d="M968.33,2300.15c-8-4.09-13.44-8.71-16.35-13.86-2.9-5.16-3.02-10.34-.35-15.56,1.69-3.3,4.09-6.02,7.21-8.15,3.12-2.13,6.59-3.68,10.42-4.62,3.83-.95,7.75-1.22,11.76-.81,4.01.41,7.76,1.5,11.23,3.27,1.22.62,2.46,1.25,3.72,1.9,1.26.64,2.39,1.27,3.39,1.9l15.46-30.25c1.29-2.52,2.05-4.54,2.28-6.07.23-1.53-.19-2.84-1.27-3.94-1.08-1.1-2.97-2.34-5.66-3.72-.17-.09-.13-.39.14-.92s.49-.74.66-.65c2.26,1.16,4.76,2.49,7.5,3.99,2.74,1.51,5.76,3.11,9.06,4.79,3.13,1.6,6.13,3.08,9,4.43,2.87,1.36,5.43,2.61,7.69,3.77.26.13.26.46,0,.98-.27.52-.53.72-.79.58-2.69-1.38-4.8-2.18-6.33-2.41-1.53-.23-2.86.18-4,1.24-1.14,1.06-2.36,2.85-3.65,5.37l-30.84,60.36c-1.29,2.52-2.04,4.52-2.25,6-.21,1.48.22,2.79,1.27,3.94,1.06,1.14,2.94,2.41,5.63,3.78.18.09.13.39-.14.92-.27.52-.49.74-.66.65-2.26-1.15-4.75-2.51-7.46-4.06-2.71-1.55-5.64-3.13-8.77-4.73-2.61-1.33-5.52-2.66-8.74-3.97-3.22-1.32-6.26-2.71-9.13-4.17ZM980.44,2203.09c1.3.67,2.55,3.44,3.73,8.32,1.18,4.88,2.18,11.55,3,20.03.82,8.48,1.53,18.46,2.13,29.94l-13.93-2.35c-1.36-14.5-2.81-26.29-4.37-35.36-1.56-9.07-3.5-16.04-5.84-20.91-2.33-4.87-5.24-8.19-8.72-9.96-.17-.09-.13-.39.14-.91.27-.52.49-.74.66-.65,6.08,3.11,11.04,5.64,14.86,7.59,3.83,1.96,6.61,3.38,8.34,4.26ZM969.15,2273.44c-2.62,5.13-4.1,9.3-4.43,12.53-.33,3.23.16,5.81,1.47,7.74,1.31,1.93,3.14,3.5,5.49,4.7,2,1.02,3.73,1.55,5.19,1.58,1.46.03,2.78-.45,3.94-1.44,1.17-.99,2.26-2.49,3.28-4.49l13.32-26.08c-1.13-.8-2.36-1.59-3.71-2.39-1.34-.8-2.54-1.46-3.58-2-4.61-2.35-8.44-2.89-11.51-1.61-3.07,1.28-6.22,5.09-9.46,11.44Z"
		/>
		<path
			class="cls-5"
			d="M838.44,2110.29c-.39-.29-.42-.67-.07-1.14.35-.47.72-.56,1.11-.28,2.36,1.73,4.77,3.61,7.21,5.64,2.45,2.03,4.85,3.91,7.21,5.64,2.68,1.96,5.06,3.58,7.14,4.87,2.09,1.28,4.35,2.82,6.79,4.61.32.23.3.58-.05,1.05-.35.47-.68.59-.99.36-3.23-2.36-5.57-3.08-7.04-2.16-1.46.92-2.62,4.04-3.48,9.34l-10.68,64.93-13.22,5.92,61.47-34.66c5.58-3.17,8.36-6.88,8.33-11.14-.03-4.26-2.25-8-6.66-11.23-.39-.29-.42-.67-.07-1.14.35-.47.72-.56,1.11-.28,2.36,1.73,4.47,3.39,6.33,4.99,1.86,1.6,4.28,3.49,7.27,5.68,3.07,2.25,5.59,3.97,7.56,5.17,1.97,1.2,4.29,2.78,6.97,4.73.31.23.3.58-.05,1.06-.35.47-.68.59-.99.36-2.13-1.56-4.29-2.44-6.49-2.66-2.2-.22-4.94.31-8.24,1.59-3.29,1.28-7.54,3.4-12.74,6.37l-66.88,37.6c-.25.18-.71.06-1.37-.36-.66-.42-.91-.82-.76-1.19l13-79.75c.82-5.09,1.33-9.22,1.54-12.39.21-3.18.03-5.66-.53-7.46-.56-1.8-1.47-3.16-2.73-4.08ZM872.58,2187.34l-4.19,2.01-24.34-17.81,1.59-3.91,26.94,19.71Z"
		/>
		<path
			class="cls-5"
			d="M696.7,2081.45c-2.02,1.98-3.37,3.67-4.04,5.08-.67,1.41-.6,2.94.21,4.61.81,1.67,2.44,3.75,4.9,6.27.2.21.1.52-.32.93-.42.41-.73.51-.94.3-1.77-1.82-3.75-3.94-5.93-6.38-2.18-2.44-4.84-5.27-7.98-8.48-2.46-2.51-4.95-4.96-7.47-7.33-2.52-2.37-4.68-4.47-6.45-6.29-.21-.21-.1-.52.32-.93.42-.41.73-.51.94-.3,2.25,2.3,4.15,3.86,5.69,4.67,1.55.81,3.01.92,4.4.31,1.39-.6,3.09-1.9,5.12-3.88l48.48-47.38c2.03-1.98,3.37-3.67,4.04-5.08.67-1.41.6-2.87-.21-4.4-.81-1.53-2.34-3.44-4.59-5.75-.21-.21-.1-.52.32-.93.42-.41.73-.51.94-.3,1.77,1.82,3.84,4,6.19,6.54,2.35,2.55,4.76,5.08,7.21,7.59,3.14,3.21,5.89,5.95,8.24,8.22,2.36,2.27,4.42,4.31,6.19,6.13.2.21.1.52-.32.93-.42.41-.73.51-.94.3-2.46-2.51-4.47-4.23-6.05-5.14-1.58-.92-3.08-1.05-4.5-.42-1.42.64-3.15,1.95-5.17,3.93l-48.27,47.17ZM789.38,2079.72l-48.48,47.38c-2.02,1.98-3.35,3.65-3.99,5.03-.64,1.37-.58,2.82.16,4.35.74,1.53,2.24,3.44,4.49,5.75.21.21.1.52-.32.93-.42.41-.73.51-.93.3-1.77-1.81-3.73-3.93-5.88-6.33-2.15-2.41-4.45-4.87-6.9-7.38-3.14-3.21-5.94-5.97-8.4-8.28-2.46-2.31-4.64-4.44-6.55-6.39-.14-.14,0-.41.42-.82.42-.41.7-.54.83-.4,2.39,2.44,4.4,4.09,6.05,4.94s3.2.97,4.65.36c1.46-.6,3.2-1.9,5.22-3.87l48.27-47.17c2.03-1.98,3.35-3.69,3.99-5.13.64-1.44.52-2.96-.36-4.56-.88-1.6-2.51-3.62-4.9-6.06-.14-.14,0-.41.42-.82.42-.41.7-.54.83-.4,1.98,2.02,4.09,4.26,6.34,6.7,2.25,2.44,4.95,5.27,8.08,8.48,2.46,2.51,4.88,4.92,7.27,7.23,2.39,2.3,4.47,4.37,6.24,6.18.14.14,0,.41-.42.82s-.7.54-.83.4c-2.32-2.37-4.21-3.97-5.69-4.78-1.47-.81-2.94-.91-4.4-.31-1.46.6-3.2,1.89-5.22,3.87ZM759.98,2097.81l-2.93,2.87-44.31-45.34,2.93-2.87,44.31,45.34Z"
		/>
		<path
			class="cls-5"
			d="M635.14,1872.39c-.11-.16.08-.41.56-.74.48-.33.78-.41.89-.25,1.43,2.1,3,4.51,4.73,7.23,1.73,2.72,3.58,5.53,5.55,8.44,2.03,2.99,3.96,5.75,5.79,8.28,1.84,2.53,3.47,4.85,4.89,6.94.16.24,0,.53-.48.86s-.81.37-.97.13c-2.58-3.8-4.76-5.88-6.55-6.26-1.79-.38-4.34.73-7.65,3.33l-51.89,39.3-13.88.4,93.41-18.28c.38-.14.75.05,1.1.58.36.53.43.98.21,1.36l-41.7,78.03c-3.65,6.96-4.02,12.58-1.12,16.86.17.24,0,.53-.48.86-.48.33-.81.37-.97.13-1.15-1.7-2.31-3.5-3.5-5.41-1.18-1.91-2.21-3.51-3.09-4.81-1.42-2.1-2.71-3.91-3.86-5.43-1.15-1.52-2.03-2.72-2.63-3.61-.77-1.13-.95-2.27-.56-3.43.4-1.16,1.42-3.29,3.07-6.42l32.46-61.67,15.01-1.34-84.29,15.81c-1.46.28-2.59.31-3.39.09-.8-.22-1.5-.78-2.11-1.67-.55-.81-1.08-1.68-1.61-2.63-.52-.94-1.19-2.02-2.02-3.23-1.75-2.58-3.29-4.76-4.6-6.52-1.31-1.76-2.57-3.53-3.78-5.31-.17-.24,0-.53.48-.86.49-.33.81-.37.97-.13,2.52,3.71,5.14,5.92,7.85,6.61,2.71.7,5.63-.13,8.75-2.49l53.02-40.24c2.23-1.75,3.8-3.26,4.71-4.53.91-1.27,1.16-2.64.74-4.13-.42-1.49-1.45-3.44-3.09-5.86ZM680.08,1968.58l-58.36,37.85-2.14-3.68,58.2-37.56c4.34-2.82,7.14-6,8.41-9.51,1.27-3.52.78-6.93-1.47-10.24-.16-.24,0-.53.48-.86.48-.33.81-.37.97-.13,1.21,1.78,2.4,3.62,3.58,5.53,1.18,1.91,2.57,4.04,4.15,6.38,1.76,2.58,3.39,4.9,4.89,6.94,1.51,2.05,2.86,3.96,4.07,5.73.16.24,0,.53-.48.86-.48.33-.81.37-.97.13-2.25-3.31-5.28-5.09-9.1-5.33-3.82-.24-7.89,1.05-12.23,3.88Z"
		/>
		<path
			class="cls-5"
			d="M571.26,1738.06c-.2-.45-.03-.79.5-1.03.53-.24.9-.14,1.1.31,1.2,2.67,2.36,5.5,3.48,8.47,1.12,2.97,2.28,5.8,3.48,8.47,1.36,3.03,2.63,5.61,3.81,7.76,1.18,2.15,2.39,4.6,3.63,7.36.16.36-.03.65-.56.89-.53.24-.88.18-1.04-.17-1.64-3.65-3.32-5.43-5.05-5.35-1.73.08-4.27,2.22-7.64,6.4l-41.37,51.17-14.42-1.38,70.57.23c6.42,0,10.67-1.85,12.75-5.57,2.08-3.71,1.99-8.06-.25-13.05-.2-.44-.03-.79.5-1.03.53-.24.9-.14,1.1.31,1.2,2.67,2.21,5.16,3.03,7.46.82,2.31,1.99,5.15,3.51,8.53,1.56,3.47,2.9,6.21,4.02,8.23,1.12,2.01,2.36,4.53,3.72,7.56.16.35-.03.65-.56.89s-.88.18-1.04-.17c-1.08-2.4-2.52-4.24-4.33-5.52-1.8-1.28-4.45-2.17-7.95-2.69-3.5-.52-8.23-.77-14.22-.75l-76.72-.36c-.31.03-.64-.3-1.01-.99-.36-.69-.39-1.16-.07-1.41l50.7-62.91c3.23-4.02,5.71-7.35,7.46-10.01,1.75-2.66,2.83-4.91,3.23-6.75.4-1.84.29-3.47-.35-4.9ZM562.87,1821.92l-4.64-.32-12.36-27.51,3.32-2.62,13.68,30.45Z"
		/>
		<path
			class="cls-5"
			d="M459.37,1680.99c-2.38-8.66-2.64-15.8-.79-21.42,1.85-5.62,5.6-9.2,11.24-10.75,3.58-.98,7.21-1.04,10.88-.18,3.68.86,7.16,2.39,10.44,4.57,3.28,2.19,6.13,4.9,8.53,8.13,2.41,3.24,4.13,6.74,5.16,10.5.36,1.32.73,2.66,1.1,4.02.38,1.37.67,2.62.89,3.78l32.75-8.99c2.73-.75,4.74-1.55,6.02-2.41,1.28-.86,1.97-2.06,2.05-3.6.08-1.54-.27-3.77-1.08-6.69-.05-.19.2-.36.77-.51.56-.16.87-.14.92.05.67,2.45,1.38,5.19,2.11,8.23.73,3.04,1.59,6.35,2.57,9.92.93,3.39,1.86,6.6,2.8,9.63.93,3.03,1.74,5.78,2.41,8.22.08.28-.17.5-.73.66-.56.16-.89.09-.96-.19-.8-2.92-1.63-5.02-2.49-6.3-.86-1.28-2.06-1.99-3.62-2.12-1.55-.13-3.69.18-6.43.93l-65.37,17.94c-2.73.75-4.71,1.55-5.95,2.39-1.23.85-1.92,2.04-2.05,3.6-.13,1.55.21,3.79,1.01,6.71.05.19-.2.36-.77.51-.56.16-.87.14-.92-.05-.67-2.45-1.35-5.2-2.04-8.25-.69-3.05-1.49-6.27-2.42-9.66-.77-2.82-1.76-5.87-2.96-9.13-1.2-3.26-2.23-6.45-3.08-9.55ZM479.64,1663.58c-5.55,1.52-9.63,3.25-12.24,5.18-2.61,1.93-4.18,4.03-4.72,6.31-.54,2.27-.46,4.68.24,7.22.59,2.17,1.37,3.8,2.33,4.9.96,1.1,2.2,1.75,3.72,1.94,1.52.19,3.36-.01,5.53-.61l28.24-7.75c-.17-1.37-.42-2.82-.74-4.35-.32-1.53-.63-2.86-.94-3.99-1.37-4.99-3.56-8.18-6.58-9.58-3.01-1.4-7.96-1.16-14.83.73ZM539.2,1624.46c.39,1.41-.82,4.2-3.63,8.36-2.81,4.16-7.06,9.4-12.76,15.73-5.7,6.32-12.59,13.58-20.67,21.77l-7.66-11.87c9.79-10.78,17.51-19.81,23.16-27.08,5.65-7.27,9.48-13.41,11.5-18.41,2.02-5.01,2.51-9.39,1.47-13.16-.05-.19.21-.36.77-.52.57-.15.87-.14.92.05,1.81,6.59,3.28,11.95,4.42,16.09,1.14,4.14,1.96,7.15,2.48,9.04Z"
		/>
		<path
			class="cls-5"
			d="M510.33,1529.01c2.81-.38,4.9-.91,6.29-1.59,1.39-.68,2.22-1.78,2.51-3.29.29-1.52.23-3.77-.17-6.77-.04-.29.23-.47.81-.55.58-.08.89.03.93.32.34,2.52.67,5.33.99,8.43.32,3.11.73,6.5,1.22,10.18.47,3.48.97,6.81,1.49,9.99.53,3.18.96,6.03,1.3,8.54.03.2-.25.33-.83.41-.58.08-.88.02-.91-.17-.4-3-.95-5.21-1.63-6.65-.68-1.43-1.79-2.32-3.31-2.66-1.52-.34-3.68-.32-6.49.06l-67.18,9.05c-2.8.38-4.87.93-6.2,1.65-1.33.72-2.16,1.87-2.49,3.44-.33,1.57-.29,3.86.11,6.85.03.2-.25.33-.83.41-.58.08-.88.02-.91-.17-.34-2.51-.65-5.38-.94-8.59-.29-3.21-.66-6.56-1.13-10.04-.5-3.67-1.03-7.08-1.6-10.2-.57-3.12-1.02-5.89-1.34-8.31-.04-.29.23-.48.81-.55.58-.08.89.03.93.32.39,2.9.98,5.06,1.76,6.48.78,1.42,1.93,2.28,3.45,2.56,1.52.29,3.68.24,6.48-.13l66.89-9.01Z"
		/>
		<path
			class="cls-5"
			d="M438.82,1445.6c3.71-.07,6.94-1.07,9.69-3.03,2.75-1.95,5.22-4.49,7.41-7.6,2.19-3.11,4.38-6.4,6.56-9.85,2.28-3.75,4.68-7.33,7.21-10.74,2.53-3.41,5.45-6.25,8.78-8.5,3.33-2.25,7.33-3.42,12.02-3.51,5.17-.09,9.74,1.22,13.69,3.93,3.95,2.71,7.07,6.42,9.35,11.11,2.28,4.7,3.47,10.07,3.58,16.12.05,2.93-.19,5.98-.72,9.17-.53,3.18-1.21,6.08-2.04,8.67-.83,2.6-1.73,4.5-2.68,5.68-.29.4-.6.74-.93,1.04-.34.3-.94.46-1.82.47l-23.27.85c-.49.11-.76-.11-.82-.64-.06-.53.11-.86.5-.96,3-1.52,6.17-3.18,9.5-5s6.4-3.85,9.19-6.09c2.79-2.25,5.07-4.75,6.82-7.52,1.76-2.76,2.6-5.9,2.54-9.42-.04-2.24-.47-4.38-1.28-6.42-.82-2.03-2.26-3.69-4.33-4.98-2.07-1.28-4.91-1.89-8.52-1.83-4.59.08-8.5,1.17-11.73,3.28-3.23,2.11-6.07,4.79-8.5,8.06-2.43,3.26-4.74,6.67-6.92,10.23-2.18,3.46-4.44,6.77-6.78,9.93-2.33,3.17-5.02,5.75-8.06,7.76-3.04,2.01-6.7,3.05-11,3.12-5.47.1-9.96-1.36-13.48-4.38-3.52-3.01-6.15-6.87-7.89-11.58-1.74-4.7-2.66-9.49-2.74-14.38-.06-3.51.19-7.03.77-10.56.57-3.52,1.28-6.32,2.12-8.38.37-.98.8-1.6,1.29-1.85.48-.25,1.02-.38,1.6-.39l21.52-.38c.29,0,.52.21.67.65.15.44.09.76-.2.96-1.16.61-3.07,1.47-5.74,2.59-2.66,1.12-5.45,2.59-8.34,4.39-2.9,1.81-5.37,4.1-7.42,6.87-2.05,2.77-3.04,6.11-2.97,10.01.04,2.44.57,4.65,1.58,6.63,1.01,1.98,2.48,3.57,4.4,4.76s4.4,1.75,7.42,1.7Z"
		/>
		<path
			class="cls-5"
			d="M505.97,1336.45l-67.19-8.99c-2.8-.38-4.94-.39-6.42-.05-1.47.34-2.58,1.28-3.33,2.8-.74,1.53-1.33,3.88-1.76,7.08-.04.29-.35.4-.93.32-.58-.08-.85-.26-.81-.55.34-2.51.79-5.36,1.36-8.53.57-3.17,1.09-6.5,1.56-9.98.6-4.45,1.04-8.35,1.35-11.71.3-3.36.63-6.39,1-9.1.03-.19.33-.25.91-.17.58.08.86.21.83.41-.45,3.39-.51,5.99-.16,7.81.35,1.82,1.21,3.12,2.58,3.89,1.37.77,3.46,1.35,6.27,1.73l66.9,8.95c2.81.37,4.97.37,6.5-.02,1.53-.39,2.65-1.42,3.37-3.09.72-1.68,1.3-4.21,1.76-7.59.03-.19.33-.25.91-.17.58.08.86.21.83.41-.38,2.81-.83,5.85-1.37,9.12-.54,3.28-1.1,7.14-1.7,11.59-.47,3.48-.87,6.88-1.21,10.18-.34,3.3-.68,6.21-1.02,8.73-.03.2-.33.25-.91.17-.58-.08-.86-.21-.83-.41.44-3.29.53-5.76.25-7.43-.27-1.66-1.09-2.88-2.46-3.65s-3.46-1.35-6.27-1.73ZM447.51,1264.51c-2.81-.38-4.97-.39-6.49-.06-1.52.34-2.69,1.34-3.5,3-.81,1.66-1.45,4.24-1.92,7.72-.04.29-.35.4-.93.32-.58-.08-.85-.26-.81-.55.34-2.51.79-5.38,1.37-8.6.58-3.22,1.17-7.06,1.76-11.51.47-3.48.86-6.95,1.17-10.4s.64-6.44.98-8.95c.04-.29.35-.4.93-.32.58.08.85.26.81.55-.43,3.19-.48,5.65-.17,7.36.31,1.72,1.14,2.94,2.47,3.65,1.33.72,3.4,1.27,6.21,1.64l67.19,8.99c2.81.38,4.97.39,6.49.06,1.52-.34,2.64-1.3,3.34-2.88.71-1.58,1.27-3.96,1.7-7.16.04-.29.35-.4.93-.32.58.08.85.26.81.55-.34,2.52-.78,5.49-1.34,8.91-.56,3.42-1.07,6.87-1.53,10.36-.6,4.45-1.06,8.3-1.4,11.56-.34,3.26-.67,6.14-1.01,8.65-.04.29-.35.4-.93.32-.58-.08-.85-.26-.81-.55.47-3.48.57-6.13.32-7.93-.25-1.81-1.07-3.07-2.45-3.8-1.38-.72-3.47-1.28-6.28-1.65l-66.9-8.95ZM473.61,1324.43l-4.06-.54,8.41-62.83,4.06.54-8.41,62.83Z"
		/>
		<path
			class="cls-5"
			d="M538.08,1168.23c2.73.75,4.86,1.09,6.4,1.01,1.54-.08,2.74-.76,3.6-2.04.86-1.28,1.69-3.38,2.5-6.3.08-.28.4-.35.96-.19.57.16.81.38.73.66-.68,2.45-1.48,5.16-2.4,8.15-.92,2.99-1.88,6.27-2.87,9.84-.93,3.39-1.78,6.65-2.55,9.78-.76,3.13-1.48,5.92-2.16,8.37-.05.19-.36.21-.92.05-.56-.16-.82-.33-.77-.52.8-2.91,1.17-5.17,1.11-6.76-.07-1.59-.74-2.84-2-3.74-1.27-.91-3.27-1.74-6-2.49l-65.34-18.04c-2.73-.75-4.85-1.06-6.35-.92-1.51.14-2.72.87-3.64,2.18-.92,1.32-1.78,3.43-2.59,6.35-.05.19-.36.2-.92.05-.56-.16-.82-.33-.77-.52.68-2.45,1.51-5.2,2.51-8.27,1-3.07,1.96-6.29,2.9-9.68.99-3.57,1.83-6.91,2.53-10.01.7-3.1,1.38-5.82,2.03-8.17.08-.28.4-.35.96-.19.56.15.81.37.73.66-.78,2.82-1.09,5.04-.93,6.66.16,1.61.88,2.85,2.17,3.71,1.28.86,3.29,1.67,6.01,2.42l65.06,17.96Z"
		/>
		<path
			class="cls-5"
			d="M641.86,951.63c.23-.43.6-.51,1.12-.24.52.27.66.63.44,1.06-1.37,2.59-2.88,5.24-4.53,7.96-1.65,2.71-3.16,5.37-4.53,7.96-1.55,2.94-2.81,5.53-3.77,7.78-.96,2.25-2.16,4.71-3.57,7.39-.18.35-.53.38-1.05.11-.52-.27-.69-.58-.5-.93,1.87-3.54,2.24-5.96,1.11-7.28-1.13-1.31-4.38-2.01-9.75-2.08l-65.79-1.12-7.79-12.22,43.24,55.77c3.95,5.06,8.03,7.27,12.23,6.62,4.21-.65,7.58-3.39,10.14-8.22.23-.43.6-.51,1.12-.24.52.27.66.63.44,1.06-1.37,2.59-2.71,4.92-4.02,6.98-1.31,2.07-2.83,4.74-4.56,8.02-1.78,3.37-3.11,6.11-4.01,8.23-.9,2.12-2.12,4.65-3.67,7.58-.18.34-.53.38-1.05.11-.52-.27-.69-.58-.5-.93,1.23-2.33,1.79-4.6,1.69-6.81-.1-2.21-1.03-4.85-2.77-7.92-1.74-3.07-4.46-6.96-8.16-11.67l-46.93-60.7c-.21-.22-.16-.69.16-1.4.32-.71.68-1.02,1.07-.93l80.79,1.25c5.15.07,9.31-.02,12.48-.28,3.17-.26,5.61-.79,7.3-1.61,1.7-.81,2.91-1.91,3.64-3.29ZM570.59,996.62l-2.6-3.86,14.08-26.67,4.1,1.01-15.58,29.52Z"
		/>
		<path
			class="cls-5"
			d="M626.38,814.99c2.45-3.29,5.37-6.62,8.74-10.01,3.38-3.38,6.39-5.79,9.04-7.23.76-.53,1.4-.78,1.93-.75.53.03,1.25.33,2.17.89l17.36,10.76c.23.18.26.47.08.88-.18.41-.49.58-.92.5-7.95-1.91-15.3-1.94-22.04-.09-6.74,1.85-12.36,5.79-16.85,11.82-3.91,5.24-5.89,10.68-5.94,16.3-.05,5.62,1.6,11.12,4.96,16.49,3.36,5.37,8.17,10.39,14.43,15.06,5.4,4.03,10.96,7.14,16.69,9.34,5.73,2.2,11.27,3.42,16.64,3.64,5.37.23,10.33-.58,14.87-2.43,4.54-1.84,8.33-4.81,11.37-8.88,3.73-5.01,5.43-10.71,5.09-17.11-.34-6.4-2.78-13.73-7.34-22-.2-.39-.11-.75.26-1.08.37-.33.67-.41.91-.24l14.65,13.66c.82.86,1.3,1.49,1.43,1.88.13.4.09,1.07-.13,2.01-1.35,4.59-3.07,8.94-5.16,13.04-2.09,4.1-4.42,7.88-6.98,11.32-5.66,7.59-11.66,13.22-17.99,16.9-6.33,3.68-12.67,5.8-19,6.38-6.33.57-12.35-.01-18.04-1.77-5.69-1.75-10.73-4.26-15.12-7.53-5.79-4.32-10.1-9.39-12.94-15.22-2.84-5.83-4.37-12.02-4.59-18.58-.22-6.56.73-13.1,2.85-19.61,2.12-6.52,5.31-12.63,9.57-18.34Z"
		/>
		<path
			class="cls-5"
			d="M823.08,736.51c.35-.34.73-.3,1.14.12.41.42.44.8.09,1.14-2.1,2.04-4.35,4.1-6.76,6.18-2.41,2.08-4.66,4.13-6.76,6.18-2.38,2.32-4.37,4.4-5.98,6.24-1.61,1.84-3.5,3.82-5.67,5.93-.28.27-.62.2-1.03-.22-.41-.42-.47-.76-.19-1.04,2.87-2.79,3.96-4.99,3.3-6.58-.67-1.59-3.55-3.25-8.63-4.98l-62.26-21.31-3.65-14.02,23.98,66.37c2.2,6.03,5.4,9.39,9.6,10.06,4.2.68,8.26-.89,12.17-4.71.35-.34.73-.3,1.14.12.41.42.44.8.09,1.14-2.1,2.04-4.09,3.85-5.97,5.41-1.88,1.56-4.15,3.64-6.81,6.23-2.73,2.66-4.84,4.86-6.35,6.59-1.51,1.74-3.45,3.77-5.83,6.08-.28.27-.62.2-1.03-.22-.41-.42-.47-.77-.19-1.04,1.89-1.84,3.12-3.82,3.7-5.96.58-2.13.51-4.93-.2-8.39-.71-3.46-2.1-8-4.17-13.62l-25.98-72.19c-.14-.28.06-.7.59-1.29.53-.58.96-.76,1.3-.55l76.48,26.05c4.88,1.65,8.87,2.84,11.96,3.57,3.1.73,5.58.97,7.45.72,1.87-.25,3.36-.92,4.48-2.01ZM741.43,757.39l-1.29-4.47,21.6-21.05,3.6,2.22-23.91,23.29Z"
		/>
		<path
			class="cls-5"
			d="M894.66,685.35c-2.56,1.79-5.84,3.91-9.85,6.36-4.01,2.45-7.61,4.79-10.81,7.03-2.88,2.02-5.61,3.99-8.19,5.91-2.58,1.93-4.91,3.62-6.99,5.07-.16.11-.41-.07-.74-.55-.33-.48-.42-.78-.26-.89,2.48-1.73,4.2-3.23,5.16-4.5.96-1.27,1.24-2.65.84-4.16-.4-1.51-1.41-3.42-3.04-5.74l-38.88-55.53c-1.62-2.32-3.04-3.92-4.25-4.8-1.21-.88-2.59-1.1-4.14-.68-1.55.43-3.52,1.48-5.92,3.16-.24.17-.53.01-.86-.47-.34-.48-.38-.8-.14-.97,2.08-1.45,4.44-3.02,7.08-4.69,2.64-1.67,5.44-3.54,8.4-5.61,2.88-2.02,5.97-4.33,9.26-6.93,3.3-2.6,6.19-4.78,8.67-6.51,8.31-5.82,16.67-9.29,25.07-10.4,8.4-1.11,16.24-.11,23.55,3,7.3,3.11,13.36,8.1,18.17,14.98,4.2,6,6.95,12.14,8.26,18.43,1.31,6.29,1.31,12.43.01,18.4-1.3,5.97-3.68,11.55-7.15,16.72-3.47,5.17-7.88,9.63-13.24,13.38ZM891.53,683.43c5.04-3.53,8.6-7.96,10.7-13.3,2.1-5.34,2.5-11.31,1.22-17.92-1.29-6.6-4.48-13.54-9.57-20.82-4.76-6.8-10.11-12.22-16.05-16.29-5.94-4.06-11.93-6.39-17.95-7-6.03-.61-11.64.91-16.83,4.55-4.64,3.25-7.65,6.01-9.03,8.29-1.38,2.28-.93,5.06,1.37,8.34l37.79,53.97c2.07,2.96,4.39,4.61,6.96,4.96,2.57.35,6.37-1.24,11.41-4.77Z"
		/>
		<path
			class="cls-5"
			d="M1038.34,601.53l-57.93,28.85c-.26.13-.52-.07-.79-.59-.26-.52-.26-.85,0-.98,2.71-1.35,4.61-2.57,5.7-3.66,1.09-1.09,1.53-2.4,1.32-3.93-.22-1.53-.95-3.56-2.22-6.09l-30.21-60.68c-1.26-2.53-2.43-4.32-3.49-5.37-1.07-1.05-2.38-1.49-3.93-1.32-1.55.17-3.68.93-6.39,2.28-.26.13-.52-.07-.78-.59-.26-.53-.26-.85,0-.98l55.57-27.67c.87-.43,1.51-.26,1.9.53l8.94,17.3c.09.18-.07.42-.46.72-.39.31-.74.37-1.05.19-3.97-4.46-8.21-7.06-12.72-7.81-4.52-.75-9.48.23-14.9,2.92l-3.93,1.96c-1.75.87-3.07,1.83-3.97,2.87-.9,1.05-1.35,2.23-1.35,3.53,0,1.31.39,2.75,1.17,4.32l29.89,60.03c.83,1.66,1.74,2.95,2.74,3.87,1,.92,2.07,1.42,3.21,1.51,1.13.09,2.4-.21,3.8-.91l4.32-2.15c6.81-3.39,11.58-7.51,14.29-12.35,2.71-4.84,3.57-10.66,2.58-17.48-.04-.31.21-.51.75-.62.54-.11.86-.08.95.1.91,2.71,2.1,5.85,3.55,9.43,1.46,3.58,2.92,6.86,4.4,9.83.65,1.31.32,2.29-.99,2.94ZM1016.45,575.96c-1.78-3.58-4.54-5.72-8.27-6.43-3.73-.7-8.22.25-13.46,2.86l-17.69,8.81-1.83-3.67,17.82-8.88c5.15-2.57,8.62-5.41,10.39-8.53,1.77-3.12,1.9-6.2.38-9.26-.13-.26.04-.51.53-.75.48-.24.79-.23.92.03,1.44,2.88,2.53,5.15,3.3,6.78.76,1.64,1.58,3.33,2.45,5.08,1.09,2.18,2.22,4.29,3.39,6.32,1.18,2.03,2.39,4.31,3.66,6.85.09.18-.13.39-.66.65-.52.26-.83.31-.92.13Z"
		/>
		<path
			class="cls-5"
			d="M1200.04,542.39c.19-.06.37.19.54.75s.17.87-.02.93c-2.42.76-5.19,1.57-8.29,2.43-3.1.87-6.33,1.82-9.69,2.87-3.45,1.07-6.65,2.13-9.6,3.15-2.95,1.03-5.64,1.91-8.06,2.67-.28.09-.51-.15-.68-.71-.17-.56-.12-.88.16-.97,4.38-1.36,7.01-2.85,7.89-4.45.88-1.6.56-4.36-.97-8.29l-22.57-61.05,3.64-13.41-9.58,94.7c.02.4-.27.7-.87.89-.61.19-1.06.13-1.36-.19l-62.59-62.53c-5.61-5.51-10.88-7.5-15.81-5.96-.28.09-.51-.15-.68-.71-.17-.56-.12-.88.16-.97,1.96-.61,4.02-1.2,6.19-1.78,2.17-.57,4-1.09,5.49-1.56,2.42-.76,4.53-1.46,6.32-2.12,1.79-.66,3.19-1.15,4.22-1.47,1.3-.41,2.45-.25,3.44.46.99.71,2.74,2.31,5.25,4.8l49.61,48.94-3.07,14.76,9.3-85.25c.15-1.48.45-2.57.9-3.27.45-.7,1.18-1.21,2.21-1.53.93-.29,1.92-.55,2.98-.78,1.05-.23,2.28-.56,3.68-.99,2.98-.93,5.51-1.77,7.57-2.52,2.07-.75,4.13-1.44,6.18-2.08.28-.09.51.15.68.71.17.56.12.88-.16.97-4.29,1.34-7.16,3.2-8.61,5.6-1.45,2.4-1.5,5.43-.15,9.1l23.14,62.41c1.03,2.65,2.02,4.58,2.97,5.82.95,1.24,2.19,1.87,3.74,1.9,1.54.03,3.71-.39,6.51-1.26ZM1094.95,557.52l-19.31-66.83,4.14-.98,19.08,66.59c1.45,4.97,3.67,8.57,6.67,10.8,3,2.23,6.4,2.76,10.23,1.57.28-.09.51.15.68.71.17.56.12.88-.16.97-2.05.64-4.16,1.25-6.33,1.82-2.17.58-4.61,1.28-7.31,2.13-2.98.93-5.67,1.82-8.06,2.67-2.39.85-4.62,1.59-6.67,2.23-.28.09-.51-.15-.68-.71-.17-.56-.12-.88.16-.97,3.82-1.19,6.4-3.58,7.73-7.17,1.34-3.58,1.28-7.86-.17-12.83Z"
		/>
		<path
			class="cls-5"
			d="M1275.59,490.57l-26.83-31.13c-4.71-5.45-8.33-9.01-10.88-10.67-2.55-1.66-4.6-2.39-6.14-2.17-.29.04-.48-.23-.56-.81-.08-.58.02-.89.31-.93,1.45-.2,2.96-.34,4.53-.41,1.57-.07,3.08-.21,4.52-.41,2.71-.38,5.6-.81,8.69-1.29,3.09-.48,6-.96,8.74-1.45,2.74-.48,4.98-.85,6.72-1.09.19-.03.33.25.41.83.08.58.02.89-.17.91-2.8.39-4.34,1.59-4.6,3.6-.26,2.01.66,4.19,2.77,6.56l25.49,29.99-13.01,8.47ZM1273.99,485.47l15.91-3.56,4.83,34.51c.39,2.8.93,4.9,1.62,6.28.69,1.38,1.79,2.21,3.31,2.49,1.52.28,3.77.21,6.77-.21.29-.04.48.23.56.81.08.58-.02.89-.31.93-2.51.35-5.3.69-8.36,1.02-3.06.33-6.43.75-10.1,1.27-3.48.49-6.81,1-9.98,1.55-3.18.54-6.02.99-8.53,1.34-.19.03-.33-.25-.41-.83-.08-.58-.03-.88.17-.91,3-.42,5.21-.98,6.64-1.67,1.43-.69,2.31-1.8,2.64-3.33.33-1.52.3-3.69-.1-6.49l-4.65-33.2ZM1283.92,488.81l13.59-32.8c2.43-5.86,3.05-10.43,1.85-13.71-1.2-3.28-4.07-4.61-8.61-3.97-.29.04-.48-.23-.56-.81-.08-.58.02-.89.31-.93,3.09-.43,6-.77,8.73-1,2.73-.23,6.36-.67,10.9-1.3,2.42-.34,4.36-.69,5.84-1.04,1.48-.35,3.28-.68,5.41-.98.19-.03.33.25.41.83.08.58.02.88-.17.91-1.93.27-4.14,1.44-6.6,3.51-2.47,2.07-4.86,4.75-7.15,8.02-2.3,3.28-4.34,7.02-6.12,11.21l-14.44,34.1-3.39-2.04Z"
		/>
		<path
			class="cls-5"
			d="M1502.78,527.04c-6.99-.74-13.19-2.64-18.61-5.72s-9.91-7.01-13.48-11.8c-3.57-4.79-6.14-10.14-7.73-16.05-1.58-5.91-2.04-12.07-1.36-18.47.83-7.86,3.08-14.59,6.77-20.19,3.68-5.6,8.25-10.1,13.72-13.5,5.46-3.4,11.3-5.75,17.53-7.06,6.22-1.31,12.29-1.65,18.22-1.02,7.18.76,13.48,2.72,18.88,5.89,5.41,3.17,9.87,7.15,13.39,11.94,3.52,4.79,6.03,10.06,7.53,15.81,1.5,5.75,1.95,11.54,1.33,17.37-.72,6.8-2.74,12.96-6.07,18.5-3.33,5.54-7.58,10.24-12.75,14.11-5.17,3.87-10.97,6.72-17.39,8.54-6.43,1.83-13.08,2.37-19.97,1.65ZM1507.97,523.91c5.43.57,10.45-.47,15.05-3.12,4.6-2.66,8.45-6.86,11.56-12.62,3.11-5.76,5.12-12.95,6.03-21.59.94-8.93.42-17.03-1.56-24.31-1.98-7.27-5.28-13.19-9.9-17.75-4.62-4.56-10.48-7.22-17.56-7.96-8.83-.93-15.98,1.7-21.44,7.9-5.46,6.2-8.82,15.22-10.07,27.06-.75,7.09-.61,13.7.41,19.84,1.02,6.14,2.78,11.58,5.27,16.31,2.49,4.73,5.63,8.5,9.41,11.3,3.78,2.8,8.04,4.46,12.8,4.96Z"
		/>
		<path
			class="cls-5"
			d="M1605.61,541.3c-.28-.07-.35-.39-.2-.96.15-.57.36-.81.65-.74,3.21.84,5.66,1.23,7.34,1.17,1.68-.06,2.97-.74,3.86-2.02.89-1.28,1.69-3.29,2.41-6.03l17.17-65.58c.72-2.74,1.02-4.85.9-6.35-.12-1.49-.81-2.68-2.09-3.57-1.28-.89-3.39-1.72-6.31-2.48-.28-.07-.35-.39-.2-.96.15-.57.36-.81.65-.74l60.05,15.72c.94.25,1.3.79,1.08,1.65l-4.65,18.91c-.05.19-.32.27-.82.24-.5-.03-.8-.21-.92-.54-.05-5.97-1.53-10.72-4.44-14.25-2.91-3.54-7.29-6.07-13.14-7.6l-4.25-1.11c-2.83-.74-5.07-.67-6.71.21-1.64.88-2.8,2.6-3.47,5.15l-16.98,64.87c-.74,2.83-.93,5.08-.55,6.74.37,1.66,1.57,3.06,3.59,4.2,2.02,1.14,5.16,2.26,9.41,3.37.19.05.21.36.06.92-.15.57-.32.83-.5.78-3.21-.84-6.67-1.79-10.37-2.87-3.71-1.07-8.06-2.26-13.06-3.57-3.4-.89-6.72-1.71-9.95-2.45-3.24-.75-6.08-1.44-8.54-2.08ZM1667.43,525.41c.99-3.78.31-7.16-2.04-10.14-2.35-2.98-6.31-5.21-11.88-6.67l-17.56-4.6,1.04-3.97,17.7,4.64c5.57,1.46,10.03,1.57,13.38.33,3.35-1.24,5.46-3.51,6.33-6.82.05-.19.36-.21.92-.06.57.15.82.32.78.51-.84,3.21-1.51,5.68-2.02,7.42-.51,1.74-1,3.55-1.5,5.43-.62,2.36-1.18,4.69-1.67,6.98-.5,2.29-1.1,4.76-1.79,7.4-.07.28-.39.35-.96.2-.57-.15-.81-.36-.74-.65Z"
		/>
		<path
			class="cls-5"
			d="M1838,577.55l15.03,6.32-16.06,30.92c-1.31,2.51-2.08,4.53-2.32,6.05-.24,1.52.17,2.84,1.25,3.95,1.07,1.11,2.95,2.36,5.64,3.75.26.14.25.46-.01.98-.27.52-.54.71-.79.58-2.25-1.17-4.72-2.51-7.4-4.01-2.68-1.5-5.67-3.11-8.96-4.82-3.12-1.62-6.13-3.13-9.03-4.53-2.9-1.4-5.48-2.68-7.73-3.85-.17-.09-.12-.39.15-.91.27-.52.49-.73.67-.65,2.68,1.39,4.81,2.23,6.38,2.49,1.57.27,2.93-.13,4.08-1.18,1.15-1.05,2.38-2.83,3.68-5.35l15.45-29.75ZM1836.35,582.63l-3.82-40.92c-.68-7.17-1.57-12.17-2.68-15-1.11-2.83-2.36-4.61-3.75-5.33-.26-.13-.25-.46.01-.98.27-.52.54-.71.79-.58,1.3.68,2.61,1.44,3.93,2.29,1.32.85,2.63,1.61,3.93,2.29,2.42,1.26,5.03,2.59,7.83,3.98,2.79,1.4,5.45,2.69,7.96,3.89,2.51,1.2,4.55,2.2,6.11,3.01.17.09.12.39-.15.91-.27.52-.49.73-.67.64-2.51-1.3-4.46-1.22-5.83.27-1.38,1.49-1.89,3.8-1.55,6.95l3.39,39.21-15.51-.63ZM1844.15,586.03l30.08-18.86c5.38-3.37,8.53-6.73,9.45-10.1.92-3.37-.65-6.11-4.72-8.23-.26-.14-.25-.46.02-.98.27-.52.53-.71.79-.58,2.77,1.44,5.33,2.85,7.69,4.24,2.36,1.39,5.57,3.14,9.64,5.25,2.17,1.12,3.95,1.97,5.36,2.54,1.41.57,3.07,1.34,4.97,2.33.17.09.12.4-.14.91-.27.52-.49.73-.67.65-1.73-.9-4.21-1.22-7.42-.97-3.21.26-6.71,1.05-10.48,2.39-3.78,1.34-7.6,3.2-11.48,5.59l-31.53,19.42-1.58-3.63Z"
		/>
		<path
			class="cls-5"
			d="M1937.92,693.9c-5.67-4.15-10.08-8.91-13.22-14.29-3.14-5.38-5.05-11.04-5.72-16.97-.68-5.94-.22-11.86,1.38-17.76,1.6-5.91,4.3-11.46,8.1-16.66,4.67-6.38,10-11.07,16-14.06,6-2.99,12.21-4.58,18.64-4.78,6.43-.2,12.66.71,18.7,2.7,6.04,2,11.46,4.75,16.26,8.27,5.83,4.26,10.29,9.13,13.37,14.58,3.08,5.46,4.94,11.14,5.58,17.05.64,5.91.16,11.73-1.43,17.46-1.59,5.73-4.12,10.96-7.57,15.69-4.03,5.51-8.88,9.83-14.54,12.94-5.66,3.11-11.7,5.04-18.12,5.8-6.41.75-12.86.3-19.33-1.35-6.47-1.65-12.51-4.52-18.1-8.61ZM1943.98,693.8c4.41,3.23,9.27,4.85,14.58,4.86,5.31.01,10.75-1.69,16.34-5.1,5.58-3.42,10.93-8.63,16.06-15.64,5.3-7.25,8.92-14.52,10.87-21.8,1.94-7.29,2.06-14.06.36-20.33-1.71-6.26-5.43-11.5-11.19-15.71-7.17-5.24-14.67-6.56-22.51-3.95-7.84,2.61-15.27,8.73-22.3,18.34-4.21,5.75-7.41,11.54-9.62,17.36-2.21,5.82-3.42,11.41-3.63,16.75-.22,5.34.6,10.17,2.46,14.5,1.86,4.32,4.72,7.89,8.58,10.72Z"
		/>
		<path
			class="cls-5"
			d="M2057,797.64c-7.71-7.89-12.84-16.11-15.4-24.66-2.56-8.55-2.76-16.79-.59-24.7,2.16-7.91,6.32-14.87,12.46-20.87,5.17-5.05,10.83-8.64,17-10.78,6.17-2.14,12.53-2.89,19.08-2.26,6.55.63,13.02,2.53,19.4,5.71,6.38,3.18,12.34,7.6,17.86,13.25,3.07,3.14,6.01,6.64,8.83,10.51,2.82,3.86,4.8,7.29,5.94,10.27.4.83.53,1.49.39,1.97-.14.48-.57,1.13-1.27,1.95l-13.23,15.58c-.21.21-.52.17-.93-.11-.41-.28-.55-.63-.4-1.04,2.98-7.56,3.9-14.97,2.74-22.23-1.16-7.26-4.47-13.68-9.92-19.27-7.1-7.26-14.96-10.25-23.6-8.97-8.64,1.28-17.15,6.01-25.53,14.2-7.05,6.89-12.07,14.15-15.06,21.77-2.99,7.63-3.94,14.97-2.84,22.02,1.09,7.05,4.23,13.23,9.41,18.54,2.59,2.65,4.99,4.47,7.18,5.47,2.2.99,4.56.97,7.09-.07,2.53-1.04,5.58-3.3,9.14-6.78,3.35-3.27,5.62-5.87,6.82-7.79,1.2-1.92,1.32-3.85.38-5.79-.94-1.94-2.99-4.52-6.12-7.73-.41-.42-.34-.9.22-1.45.56-.54,1.01-.65,1.35-.29,4.43,5.09,8.53,9.61,12.32,13.55,3.78,3.95,7.9,7.98,12.33,12.1.34.35.27.76-.22,1.24-.49.48-.9.54-1.24.19-1.09-1.25-2.15-1.89-3.19-1.9-1.04-.01-2.5.77-4.38,2.33-1.88,1.56-4.67,4.16-8.37,7.77-2.3,2.25-3.95,3.99-4.93,5.22-.98,1.23-1.68,2.15-2.1,2.77-.42.62-.91,1.2-1.47,1.74-.42.41-.78.59-1.09.56-.31-.04-.78-.23-1.39-.59-4.59-3.02-9.23-6.37-13.91-10.05-4.69-3.68-8.94-7.47-12.76-11.38Z"
		/>
		<path
			class="cls-5"
			d="M2177.33,944.81c.28.4.18.77-.3,1.1-.48.34-.86.3-1.14-.1-1.68-2.4-3.35-4.95-5.01-7.66-1.66-2.71-3.33-5.26-5.01-7.66-1.91-2.72-3.64-5.02-5.2-6.91-1.56-1.89-3.21-4.07-4.94-6.55-.22-.32-.1-.65.38-.98.48-.34.83-.34,1.05-.02,2.3,3.28,4.29,4.71,5.97,4.31,1.68-.41,3.78-2.98,6.3-7.72l31.03-58.03,14.43-1.35-69.36,13.02c-6.31,1.2-10.13,3.82-11.47,7.86-1.34,4.04-.45,8.29,2.69,12.77.28.4.18.77-.3,1.1-.48.34-.86.3-1.14-.1-1.68-2.4-3.14-4.65-4.38-6.76-1.24-2.11-2.93-4.69-5.05-7.72-2.18-3.12-4.02-5.56-5.49-7.33-1.48-1.77-3.17-4.01-5.07-6.73-.22-.32-.1-.65.38-.98.48-.34.83-.34,1.06-.02,1.51,2.16,3.27,3.7,5.29,4.61,2.01.91,4.78,1.3,8.31,1.15,3.53-.15,8.23-.79,14.11-1.93l75.42-14.05c.29-.09.69.17,1.18.78.49.61.6,1.07.34,1.37l-37.99,71.31c-2.41,4.55-4.23,8.3-5.45,11.23-1.22,2.94-1.85,5.35-1.9,7.23-.05,1.88.37,3.46,1.27,4.74ZM2169.82,860.87l4.62-.55,17.31,24.7-2.77,3.19-19.15-27.34Z"
		/>
		<path
			class="cls-5"
			d="M2269.21,1146.12c.17.46-.01.79-.56,1-.55.21-.91.08-1.08-.37-1.04-2.74-2.03-5.62-2.98-8.66-.95-3.03-1.94-5.92-2.98-8.66-1.18-3.1-2.29-5.76-3.34-7.97-1.05-2.21-2.11-4.73-3.19-7.56-.14-.37.07-.65.61-.86.55-.21.89-.13,1.03.24,1.42,3.74,3,5.62,4.73,5.64,1.73.02,4.4-1.96,8-5.94l44.32-48.64,14.32,2.23-70.43-4.4c-6.41-.38-10.76,1.22-13.05,4.8-2.29,3.59-2.47,7.93-.53,13.04.17.46-.01.79-.56,1-.55.21-.91.08-1.08-.37-1.04-2.74-1.9-5.28-2.59-7.63-.69-2.35-1.69-5.26-3-8.73-1.35-3.56-2.53-6.38-3.52-8.45-1-2.08-2.09-4.66-3.26-7.77-.14-.36.07-.65.61-.86.55-.21.89-.13,1.03.24.94,2.46,2.27,4.39,3.99,5.77,1.72,1.38,4.32,2.43,7.78,3.15,3.46.72,8.18,1.25,14.15,1.59l76.57,4.89c.31-.01.62.34.95,1.05.32.71.32,1.18-.01,1.41l-54.33,59.8c-3.46,3.82-6.14,7-8.04,9.55-1.9,2.55-3.11,4.73-3.62,6.55-.51,1.81-.49,3.45.06,4.91ZM2282.54,1062.9l4.61.6,10.71,28.19-3.47,2.41-11.86-31.2Z"
		/>
		<path
			class="cls-5"
			d="M2300.77,1199.74l68.13-13.95.59,4.36-67.84,13.89c-5.07,1.04-8.87,2.91-11.4,5.62-2.54,2.71-3.42,5.93-2.66,9.66.04.19-.23.35-.8.46-.57.12-.88.08-.92-.11-.43-2.1-.83-4.29-1.19-6.56-.37-2.27-.82-4.74-1.37-7.42-.59-2.87-1.21-5.66-1.86-8.36-.65-2.71-1.22-5.21-1.68-7.5-.06-.29.2-.49.77-.61.57-.12.89-.03.95.25.86,4.21,3.02,7.23,6.49,9.06,3.46,1.83,7.73,2.23,12.8,1.19ZM2295.38,1277.06c-.29.06-.5-.12-.63-.54-.13-.42-.17-.74-.12-.95l65.99-87.19c3.21-4.25,5.27-7.71,6.17-10.38.9-2.68,1.1-5.21.61-7.6-.04-.19.23-.34.8-.46.57-.12.88-.08.92.11.39,1.91.74,3.88,1.06,5.91.32,2.03.65,3.9,1,5.62.71,3.44,1.39,6.54,2.05,9.29.66,2.75,1.15,4.89,1.46,6.42.25,1.24-.11,2.29-1.08,3.14-.97.85-2.61,2.7-4.91,5.56l-49.89,65.06-23.43,5.99ZM2368.81,1262.03l-73.44,15.04,3.45-5.04,69.13-14.15c5.07-1.04,8.89-2.92,11.47-5.64,2.58-2.72,3.49-5.94,2.73-9.68-.04-.19.23-.35.8-.46.57-.12.88-.08.92.11.43,2.1.8,4.29,1.12,6.57.32,2.28.75,4.75,1.3,7.43.53,2.58,1.12,5.1,1.77,7.56.65,2.46,1.19,4.74,1.63,6.84.04.19-.23.35-.8.46-.57.12-.88.08-.92-.11-.78-3.82-2.91-6.53-6.37-8.11-3.46-1.58-7.73-1.85-12.79-.82Z"
		/>
		<path
			class="cls-5"
			d="M2306.43,1378.37c-.12-3.12-.13-7.03-.03-11.72.11-4.69.08-8.99-.07-12.89-.14-3.51-.32-6.87-.55-10.09-.23-3.21-.39-6.09-.49-8.62,0-.2.28-.3.87-.33.58-.02.88.06.89.26.12,3.02.45,5.28,1,6.77.55,1.49,1.56,2.48,3.05,2.96,1.48.48,3.64.66,6.47.55l67.73-2.7c2.83-.11,4.94-.44,6.33-.98,1.39-.55,2.33-1.58,2.81-3.12.47-1.54.66-3.76.54-6.69-.01-.29.28-.45.86-.47.59-.02.88.11.9.4.1,2.54.14,5.37.12,8.49-.02,3.12.04,6.49.18,10.1.14,3.51.41,7.36.83,11.54.41,4.18.68,7.79.8,10.81.4,10.14-1.2,19.04-4.8,26.71-3.6,7.66-8.68,13.73-15.25,18.19-6.56,4.46-14.04,6.86-22.42,7.19-7.31.29-13.97-.71-19.97-3.01-6-2.3-11.17-5.61-15.49-9.93-4.33-4.32-7.72-9.34-10.2-15.05-2.48-5.72-3.84-11.84-4.1-18.37ZM2309.74,1376.77c.24,6.14,2.05,11.54,5.41,16.19,3.36,4.65,8.17,8.22,14.42,10.71,6.25,2.48,13.82,3.55,22.69,3.2,8.29-.33,15.75-1.9,22.38-4.7,6.63-2.8,11.83-6.58,15.59-11.32,3.77-4.74,5.52-10.28,5.27-16.62-.23-5.66-.92-9.68-2.09-12.08-1.17-2.4-3.75-3.51-7.75-3.35l-65.83,2.62c-3.61.14-6.25,1.2-7.93,3.17-1.68,1.97-2.4,6.03-2.15,12.17Z"
		/>
		<path
			class="cls-5"
			d="M2279.62,1652.93c-.1.48-.44.66-1.01.54-.57-.12-.81-.42-.71-.9.6-2.86,1.33-5.83,2.17-8.89.84-3.06,1.57-6.03,2.17-8.89.68-3.25,1.18-6.09,1.49-8.51.31-2.43.78-5.12,1.4-8.08.08-.38.41-.51.98-.39.57.12.82.37.74.76-.82,3.91-.51,6.35.93,7.3,1.45.95,4.76.73,9.94-.67l63.58-16.98,10.84,9.62-56.89-41.76c-5.19-3.79-9.71-4.79-13.58-3.01-3.87,1.78-6.36,5.34-7.49,10.69-.1.48-.44.66-1.01.54-.57-.12-.81-.42-.71-.9.6-2.87,1.25-5.47,1.95-7.82.69-2.35,1.42-5.34,2.19-8.97.78-3.72,1.32-6.73,1.6-9.01.28-2.29.76-5.05,1.45-8.3.08-.38.41-.51.98-.39.57.12.82.37.74.75-.54,2.58-.46,4.91.24,7.01.7,2.09,2.32,4.38,4.84,6.86,2.52,2.48,6.2,5.47,11.05,8.99l61.79,45.49c.27.15.34.62.23,1.39-.11.77-.37,1.17-.77,1.18l-78.03,20.96c-4.97,1.35-8.95,2.58-11.93,3.7-2.98,1.12-5.17,2.3-6.58,3.55-1.41,1.25-2.28,2.64-2.6,4.17ZM2335.8,1590.1l3.56,2.99-6.22,29.51-4.22.16,6.88-32.66Z"
		/>
		<path
			class="cls-5"
			d="M2298.05,1734.43l-4.39,15.7-32.69-12.06c-2.66-.98-4.75-1.5-6.3-1.54-1.54-.05-2.8.53-3.76,1.73-.97,1.21-1.97,3.23-3.02,6.07-.1.27-.43.31-.98.11-.55-.2-.77-.44-.67-.72.88-2.38,1.89-5,3.05-7.85,1.15-2.85,2.38-6.02,3.66-9.5,1.22-3.3,2.33-6.47,3.36-9.53,1.02-3.06,1.97-5.78,2.85-8.16.07-.19.38-.17.93.03.55.2.79.4.72.58-1.05,2.84-1.6,5.05-1.67,6.64-.07,1.59.5,2.89,1.68,3.9,1.19,1.01,3.11,2,5.77,2.98l31.46,11.6ZM2290.42,1741.6l22.48,27.48c4.01,4.91,7.75,7.62,11.21,8.11,3.46.5,5.98-1.41,7.57-5.71.1-.27.43-.31.98-.11.55.2.77.44.67.72-1.08,2.93-2.16,5.65-3.25,8.17-1.08,2.51-2.42,5.92-4.01,10.23-.84,2.29-1.46,4.17-1.85,5.64-.39,1.47-.95,3.21-1.69,5.23-.07.18-.38.17-.93-.03-.55-.2-.79-.4-.72-.58.68-1.83.68-4.33.03-7.48-.66-3.16-1.89-6.52-3.69-10.1-1.8-3.58-4.13-7.14-6.98-10.69l-23.22-28.85,3.4-2.02ZM2292.8,1733.43l40.12-8.92c7.03-1.57,11.88-3.09,14.55-4.54,2.67-1.46,4.28-2.92,4.82-4.39.1-.27.43-.31.98-.11.55.2.77.44.67.72-.51,1.37-1.1,2.77-1.78,4.18-.68,1.41-1.27,2.81-1.78,4.18-.94,2.56-1.94,5.32-2.97,8.27-1.04,2.95-1.99,5.74-2.86,8.39-.87,2.64-1.61,4.79-2.22,6.44-.07.18-.38.17-.92-.03-.55-.2-.79-.4-.72-.58.98-2.66.65-4.58-1-5.75-1.65-1.18-4.01-1.4-7.09-.66l-38.48,8.28-1.32-15.47Z"
		/>
		<path
			class="cls-5"
			d="M2243.74,1914.2c4.53,2.5,8.71,3.46,12.56,2.85,3.85-.6,6.81-2.78,8.89-6.54.1-.17.4-.12.91.17.51.28.72.51.63.68-1.18,2.13-2.46,4.3-3.84,6.49-1.38,2.19-2.8,4.61-4.27,7.26-1.28,2.31-2.46,4.6-3.57,6.9-1.1,2.29-2.17,4.38-3.21,6.25-.09.17-.4.11-.91-.17-.51-.28-.72-.51-.63-.68,1.89-3.42,2-6.79.33-10.11-1.67-3.33-4.77-6.24-9.3-8.75l-35.61-19.71c-6.06-3.36-10.6-7.6-13.62-12.73-3.02-5.13-4.42-10.76-4.21-16.89.21-6.13,2.09-12.4,5.64-18.8,3.45-6.23,7.73-11.14,12.84-14.73,5.11-3.59,10.67-5.53,16.69-5.82,6.02-.29,12.19,1.31,18.51,4.81l41.37,22.9c2.48,1.37,4.45,2.18,5.93,2.44,1.47.26,2.81-.14,4.01-1.21,1.2-1.07,2.51-2.88,3.93-5.44.14-.25.47-.24.98.04.51.28.7.55.56.81-1.23,2.22-2.66,4.66-4.3,7.32-1.64,2.66-3.31,5.53-5.01,8.6-1.79,3.24-3.39,6.27-4.77,9.07-1.38,2.8-2.67,5.27-3.85,7.41-.14.26-.47.24-.98-.04-.51-.28-.7-.55-.56-.81,1.42-2.56,2.23-4.62,2.42-6.19.2-1.56-.21-2.94-1.24-4.12-1.02-1.18-2.77-2.45-5.25-3.82l-36.63-20.28c-10.5-5.81-19.26-7.93-26.28-6.34-7.01,1.58-12.46,5.88-16.33,12.88-3.92,7.09-4.84,13.83-2.75,20.23,2.09,6.4,7.15,11.82,15.18,16.26l35.74,19.78Z"
		/>
		<path
			class="cls-5"
			d="M2100.62,1990.6c.9-1.15,3.86-1.85,8.87-2.07,5.01-.23,11.76.06,20.23.87,8.48.81,18.41,2.01,29.8,3.61l-4.96,13.22c-14.5-1.43-26.35-2.24-35.55-2.44-9.2-.2-16.41.39-21.64,1.76-5.22,1.37-9.03,3.59-11.44,6.66-.12.15-.41.05-.87-.31-.46-.36-.63-.62-.51-.77,4.21-5.38,7.64-9.76,10.28-13.15,2.65-3.38,4.57-5.84,5.77-7.38ZM2193.61,2020.96c-5.53,7.07-11.11,11.54-16.72,13.41-5.61,1.87-10.72,1-15.34-2.61-2.92-2.29-5.13-5.16-6.63-8.63-1.5-3.47-2.35-7.17-2.56-11.11-.2-3.94.28-7.84,1.44-11.7,1.16-3.86,2.95-7.33,5.35-10.4.84-1.08,1.7-2.17,2.57-3.29.87-1.12,1.71-2.1,2.51-2.96l-26.75-20.93c-2.23-1.74-4.07-2.88-5.53-3.39-1.45-.52-2.82-.35-4.11.5-1.29.85-2.86,2.47-4.73,4.85-.12.15-.41.05-.87-.31-.46-.36-.63-.62-.51-.77,1.56-2,3.35-4.2,5.35-6.6,2-2.4,4.15-5.06,6.43-7.98,2.16-2.77,4.19-5.43,6.06-7.99,1.88-2.56,3.6-4.84,5.16-6.84.18-.23.5-.17.96.2.46.36.6.66.42.89-1.86,2.38-3.06,4.3-3.57,5.76-.52,1.45-.36,2.84.46,4.17.82,1.32,2.35,2.86,4.58,4.6l53.39,41.77c2.23,1.74,4.05,2.86,5.47,3.35,1.42.48,2.78.32,4.11-.5,1.32-.82,2.92-2.43,4.78-4.81.12-.16.41-.05.87.31.46.36.63.62.51.77-1.56,2-3.37,4.18-5.41,6.55-2.04,2.37-4.14,4.94-6.31,7.71-1.8,2.31-3.66,4.91-5.56,7.82-1.9,2.91-3.85,5.63-5.83,8.17ZM2167.54,2015.07c4.54,3.55,8.36,5.79,11.46,6.74,3.1.94,5.73.95,7.88.03,2.15-.92,4.03-2.42,5.66-4.5,1.38-1.77,2.23-3.37,2.54-4.79.31-1.43.09-2.81-.66-4.14-.75-1.33-2.02-2.69-3.78-4.08l-23.06-18.04c-1,.96-2.01,2.02-3.05,3.19-1.04,1.17-1.92,2.22-2.64,3.14-3.19,4.08-4.44,7.74-3.77,11,.68,3.25,3.82,7.08,9.43,11.47Z"
		/>
		<path
			class="cls-5"
			d="M2057.73,2165.77c-.21.2-.52.09-.92-.33-.41-.42-.5-.74-.29-.94,2.61-2.5,3.99-5.97,4.12-10.42.14-4.45-.91-9.25-3.14-14.41l-30.37-71.01c-.2-.35.04-.85.71-1.49.67-.64,1.21-.89,1.62-.74l81.71,31.49c3.56,1.32,6.58,2.01,9.07,2.07,2.48.06,4.54-.69,6.16-2.24.21-.2.52-.09.92.33.4.42.5.74.29.94-.85.81-1.53,1.39-2.06,1.76-.53.37-1.21.92-2.06,1.66-.84.74-2.15,1.95-3.92,3.64-3.95,3.77-7.15,6.86-9.58,9.25-2.44,2.39-4.4,4.37-5.88,5.92-1.49,1.55-2.79,2.87-3.92,3.95-.21.2-.52.09-.92-.33-.41-.42-.5-.74-.29-.94,3.04-2.9,4.24-5.67,3.61-8.31-.63-2.64-3-4.76-7.1-6.38l-58.5-22.67-3.32-13.44,27.11,64c2.03,4.67,4.71,7.65,8.03,8.93,3.32,1.28,6.71.27,10.17-3.03.21-.2.52-.09.92.33.41.42.5.74.29.94-2.05,1.96-4.04,3.76-5.97,5.4-1.94,1.65-4.42,3.92-7.46,6.82-1.97,1.89-3.53,3.47-4.67,4.76-1.13,1.28-2.58,2.77-4.35,4.46Z"
		/>
		<path
			class="cls-5"
			d="M1905.74,2165.44l52.76-37.47c.24-.17.53-.01.87.46.34.48.39.8.15.97-2.47,1.75-4.16,3.25-5.07,4.5-.91,1.25-1.14,2.61-.69,4.08.45,1.48,1.49,3.37,3.13,5.67l39.25,55.26c1.64,2.31,3.07,3.9,4.29,4.77,1.22.87,2.58,1.1,4.08.69,1.5-.41,3.49-1.49,5.96-3.24.24-.17.53-.02.87.46.34.48.39.8.15.97l-50.61,35.95c-.79.56-1.45.49-1.96-.23l-11.51-15.71c-.11-.16,0-.42.34-.78.34-.36.68-.48,1-.35,4.61,3.79,9.2,5.7,13.78,5.75,4.58.04,9.33-1.69,14.27-5.2l3.58-2.54c1.59-1.13,2.75-2.28,3.47-3.46.72-1.17.99-2.4.79-3.7-.2-1.29-.81-2.66-1.83-4.09l-38.83-54.67c-1.07-1.51-2.18-2.65-3.31-3.4-1.13-.75-2.27-1.08-3.4-1-1.13.09-2.34.58-3.61,1.49l-3.94,2.8c-6.21,4.41-10.28,9.21-12.21,14.42-1.93,5.2-1.88,11.09.16,17.67.09.29-.13.54-.65.73-.52.19-.84.21-.95.05-1.32-2.54-2.98-5.46-4.97-8.77-2-3.31-3.95-6.32-5.87-9.03-.85-1.19-.67-2.21.52-3.06ZM1931.33,2187.31c2.32,3.26,5.38,4.95,9.17,5.07,3.79.12,8.08-1.52,12.85-4.91l16.11-11.45,2.37,3.34-16.23,11.53c-4.69,3.33-7.67,6.68-8.94,10.04-1.27,3.35-.91,6.42,1.07,9.21.17.24.04.51-.4.83-.44.31-.74.35-.91.11-1.87-2.63-3.3-4.69-4.31-6.19-1-1.5-2.07-3.05-3.2-4.64-1.41-1.99-2.86-3.9-4.33-5.72-1.48-1.82-3.03-3.89-4.67-6.2-.11-.16.07-.41.55-.75.48-.34.77-.43.88-.27Z"
		/>
		<path
			class="cls-5"
			d="M1820.4,2213.99c2.79-1.41,6.34-3.04,10.65-4.9,4.31-1.86,8.21-3.67,11.69-5.43,3.13-1.59,6.12-3.15,8.95-4.69,2.83-1.54,5.38-2.89,7.64-4.03.18-.09.39.13.66.65.26.52.31.83.14.92-2.7,1.37-4.61,2.61-5.74,3.73-1.13,1.12-1.6,2.45-1.42,4,.18,1.55.91,3.58,2.19,6.11l30.62,60.47c1.28,2.53,2.46,4.31,3.53,5.35,1.08,1.04,2.41,1.46,4,1.26,1.59-.21,3.69-.97,6.31-2.29.26-.13.52.06.79.58.26.52.27.85,0,.98-2.26,1.14-4.82,2.36-7.67,3.64-2.85,1.28-5.89,2.74-9.11,4.37-3.13,1.59-6.52,3.44-10.15,5.55-3.63,2.11-6.8,3.85-9.5,5.22-9.06,4.58-17.82,6.83-26.29,6.75-8.47-.09-16.1-2.19-22.88-6.3-6.79-4.11-12.08-9.91-15.87-17.4-3.31-6.53-5.16-13-5.57-19.42-.4-6.42.46-12.49,2.59-18.22,2.13-5.73,5.28-10.91,9.45-15.53,4.17-4.63,9.17-8.42,15-11.37ZM1823.23,2216.33c-5.49,2.78-9.64,6.66-12.48,11.65-2.83,4.99-4.08,10.85-3.74,17.57.34,6.72,2.51,14.04,6.53,21.97,3.75,7.4,8.28,13.53,13.58,18.39,5.31,4.86,10.9,8.02,16.78,9.48,5.88,1.45,11.65.75,17.31-2.12,5.05-2.56,8.42-4.87,10.11-6.93,1.69-2.06,1.63-4.88-.17-8.45l-29.76-58.78c-1.63-3.22-3.69-5.19-6.18-5.89-2.49-.71-6.48.33-11.97,3.11Z"
		/>
		<path
			class="cls-5"
			d="M1636.08,2287.92c-.46.15-.79-.06-.96-.61-.18-.56-.04-.91.43-1.06,2.79-.89,5.72-1.73,8.8-2.51,3.08-.78,6.02-1.62,8.8-2.51,3.16-1.01,5.88-1.98,8.14-2.91,2.26-.93,4.84-1.86,7.72-2.78.37-.12.65.1.83.66s.08.9-.29,1.01c-3.81,1.22-5.77,2.69-5.89,4.42-.11,1.73,1.72,4.49,5.5,8.31l46.21,46.85-2.99,14.18,8.15-70.1c.72-6.38-.64-10.81-4.1-13.29-3.46-2.48-7.79-2.89-13-1.22-.46.15-.79-.06-.97-.61-.18-.56-.03-.91.43-1.06,2.79-.89,5.38-1.62,7.76-2.18,2.38-.56,5.34-1.4,8.87-2.53,3.62-1.16,6.5-2.18,8.62-3.07,2.12-.89,4.77-1.83,7.93-2.85.37-.12.65.1.83.66.18.56.08.9-.29,1.02-2.51.8-4.5,2.03-5.97,3.68-1.47,1.65-2.66,4.18-3.56,7.6-.91,3.42-1.69,8.1-2.34,14.05l-8.96,76.2c0,.31-.37.6-1.1.89-.73.28-1.2.25-1.41-.09l-56.83-57.44c-3.63-3.66-6.67-6.5-9.11-8.54-2.44-2.04-4.56-3.36-6.34-3.96-1.78-.61-3.42-.67-4.91-.2ZM1718.47,2305.66l-.84,4.57-28.72,9.2-2.23-3.59,31.79-10.18Z"
		/>
	</g>
	<path
		class="cls-9"
		d="M343.52,1417c0,588.89,479.1,1068,1068,1068s1068-479.1,1068-1068S2000.42,349,1411.52,349,343.52,828.1,343.52,1417ZM2449.44,1417c0,572.31-465.6,1037.91-1037.92,1037.91S373.61,1989.31,373.61,1417,839.22,379.08,1411.52,379.08s1037.92,465.6,1037.92,1037.92Z"
	/>
</svg>
